SplineFontDB: 3.0
FontName: JupiterAce
FullName: Jupiter Ace
FamilyName: Jupiter Ace
Weight: Regular
Copyright: www.jupiter-ace.co.uk
UComments: "Jupiter Ace Computer Font www.jupiter-ace.co.uk"
Version: 1
ItalicAngle: 0
UnderlinePosition: 0
UnderlineWidth: 0
Ascent: 1024
Descent: 0
InvalidEm: 0
LayerCount: 2
Layer: 0 0 "Back" 1
Layer: 1 0 "Fore" 0
XUID: [1021 557 -829236477 1011]
FSType: 0
OS2Version: 0
OS2_WeightWidthSlopeOnly: 0
OS2_UseTypoMetrics: 0
CreationTime: 1451088460
ModificationTime: 1451759662
PfmFamily: 17
TTFWeight: 400
TTFWidth: 5
LineGap: 94
VLineGap: 94
OS2TypoAscent: 0
OS2TypoAOffset: 1
OS2TypoDescent: 0
OS2TypoDOffset: 1
OS2TypoLinegap: 94
OS2WinAscent: 0
OS2WinAOffset: 1
OS2WinDescent: 0
OS2WinDOffset: 1
HheadAscent: 0
HheadAOffset: 1
HheadDescent: 0
HheadDOffset: 1
OS2Vendor: 'PfEd'
MarkAttachClasses: 1
DEI: 91125
LangName: 1033
Encoding: ISO8859-1
UnicodeInterp: none
NameList: AGL For New Fonts
DisplaySize: -48
AntiAlias: 1
FitToEm: 0
WinInfo: 0 16 10
BeginPrivate: 1
BlueValues 25 [128 128 768 768 896 896]
EndPrivate
Grid
0 1048.57617188 m 29
NamedP: "Top"
 1048.57617188 1048.57617188 l 1053
-1048.57617188 925.696289062 m 1024
  Named: "Top"
-1048.57617188 1028.09570312 m 1024
  Named: "Top"
EndSplineSet
TeXData: 1 0 0 346030 173015 115343 768000 1048576 115343 783286 444596 497025 792723 393216 433062 380633 303038 157286 324010 404750 52429 2506097 1059062 262144
BeginChars: 276 276

StartChar: a
Encoding: 97 97 0
Width: 1024
VWidth: 1048
Flags: HW
LayerCount: 2
Fore
SplineSet
256 768 m 1
 256 640 l 1
 640 640 l 1
 640 768 l 1
 256 768 l 1
256 256 m 1
 256 128 l 1
 896 128 l 1
 896 256 l 1
 768 256 l 1
 768 640 l 1
 640 640 l 1
 640 512 l 1
 256 512 l 1
 256 384 l 1
 640 384 l 1
 640 256 l 1
 256 256 l 1
256 256 m 1
 256 384 l 1
 128 384 l 1
 128 256 l 1
 256 256 l 1
EndSplineSet
EndChar

StartChar: b
Encoding: 98 98 1
Width: 1024
VWidth: 1048
Flags: HW
LayerCount: 2
Fore
SplineSet
256 896 m 1
 256 128 l 1
 426.666666667 128 597.333333333 128 768 128 c 1
 768 256 l 1
 896 256 l 1
 896 512 l 1
 768 512 l 1
 768 256 l 1
 384 256 l 1
 384 512 l 1
 768 512 l 1
 768 640 l 1
 384 640 l 1
 384 896 l 1
 256 896 l 1
EndSplineSet
EndChar

StartChar: c
Encoding: 99 99 2
Width: 1024
VWidth: 1048
Flags: HW
LayerCount: 2
Fore
SplineSet
384 256 m 1
 384 128 l 1
 768 128 l 1
 768 256 l 1
 384 256 l 1
384 256 m 1
 384 640 l 1
 256 640 l 1
 256 256 l 1
 384 256 l 1
384 640 m 1
 768 640 l 1
 768 768 l 1
 384 768 l 1
 384 640 l 1
EndSplineSet
EndChar

StartChar: d
Encoding: 100 100 3
Width: 1024
VWidth: 1048
Flags: HW
LayerCount: 2
Fore
SplineSet
640 896 m 1
 640 640 l 1
 256 640 l 1
 256 512 l 1
 128 512 l 1
 128 256 l 1
 256 256 l 1
 256 512 l 1
 640 512 l 1
 640 256 l 1
 256 256 l 1
 256 128 l 1
 896 128 l 1
 896 256 l 1
 768 256 l 1
 768 896 l 1
 640 896 l 1
EndSplineSet
EndChar

StartChar: e
Encoding: 101 101 4
Width: 1024
VWidth: 1048
Flags: HW
LayerCount: 2
Fore
SplineSet
256 256 m 1
 256 128 l 1
 768 128 l 1
 768 256 l 1
 256 256 l 1
256 256 m 1
 256 384 l 1
 640 384 l 1
 640 512 l 1
 256 512 l 1
 256 640 l 1
 128 640 l 1
 128 256 l 1
 256 256 l 1
640 512 m 1
 768 512 l 1
 768 640 l 1
 640 640 l 1
 640 512 l 1
640 640 m 1
 640 768 l 1
 256 768 l 1
 256 640 l 1
 640 640 l 1
EndSplineSet
EndChar

StartChar: f
Encoding: 102 102 5
Width: 1024
VWidth: 1048
Flags: HW
LayerCount: 2
Fore
SplineSet
512 768 m 1
 384 768 l 1
 384 128 l 1
 512 128 l 1
 512 512 l 1
 640 512 l 1
 640 640 l 1
 512 640 l 1
 512 768 l 1
512 768 m 1
 768 768 l 1
 768 896 l 1
 512 896 l 1
 512 768 l 1
EndSplineSet
EndChar

StartChar: g
Encoding: 103 103 6
Width: 1024
VWidth: 1048
Flags: HW
LayerCount: 2
Fore
SplineSet
640 128 m 1
 256 128 l 1
 256 0 l 1
 640 0 l 1
 640 128 l 1
640 128 m 1
 768 128 l 1
 768 768 l 1
 597.333333333 768 426.666666667 768 256 768 c 1
 256 640 l 1
 128 640 l 1
 128 384 l 1
 256 384 l 1
 256 640 l 1
 640 640 l 1
 640 384 l 1
 256 384 l 1
 256 256 l 1
 640 256 l 1
 640 128 l 1
EndSplineSet
EndChar

StartChar: h
Encoding: 104 104 7
Width: 1024
VWidth: 1048
Flags: HW
LayerCount: 2
Fore
SplineSet
128 896 m 1
 128 128 l 1
 256 128 l 1
 256 512 l 1
 640 512 l 1
 640 128 l 1
 768 128 l 1
 768 512 l 1
 640 512 l 1
 640 640 l 1
 256 640 l 1
 256 896 l 1
 128 896 l 1
EndSplineSet
EndChar

StartChar: i
Encoding: 105 105 8
Width: 1024
VWidth: 1048
Flags: HW
LayerCount: 2
Fore
SplineSet
256 640 m 1
 341.333333333 640 426.666666667 640 512 640 c 1
 512 256 l 1
 640 256 l 1
 640 128 l 1
 256 128 l 1
 256 256 l 1
 384 256 l 1
 384 512 l 1
 256 512 l 1
 256 640 l 1
384 896 m 1
 512 896 l 1
 512 768 l 1
 384 768 l 1
 384 896 l 1
EndSplineSet
EndChar

StartChar: j
Encoding: 106 106 9
Width: 1024
VWidth: 1048
Flags: HW
LayerCount: 2
Fore
SplineSet
640 896 m 1
 640 768 l 1
 768 768 l 1
 768 896 l 1
 640 896 l 1
384 128 m 1
 384 256 l 1
 256 256 l 1
 256 128 l 1
 384 128 l 1
384 128 m 1
 384 0 l 1
 640 0 l 1
 640 128 l 1
 384 128 l 1
640 128 m 1
 768 128 l 1
 768 640 l 1
 640 640 l 1
 640 128 l 1
EndSplineSet
EndChar

StartChar: k
Encoding: 107 107 10
Width: 1024
VWidth: 1048
Flags: HW
LayerCount: 2
Fore
SplineSet
256 896 m 1
 256 128 l 1
 384 128 l 1
 384 384 l 1
 512 384 l 1
 512 256 l 1
 640 256 l 1
 640 128 l 1
 768 128 l 1
 768 256 l 1
 640 256 l 1
 640 384 l 1
 512 384 l 1
 512 640 l 1
 640 640 l 1
 640 768 l 1
 512 768 l 1
 512 640 l 1
 384 640 l 1
 384 896 l 1
 256 896 l 1
EndSplineSet
EndChar

StartChar: l
Encoding: 108 108 11
Width: 1024
VWidth: 1048
Flags: HW
LayerCount: 2
Fore
SplineSet
384 896 m 1
 384 256 l 1
 512 256 l 1
 512 128 l 1
 768 128 l 1
 768 256 l 1
 512 256 l 1
 512 896 l 1
 384 896 l 1
EndSplineSet
EndChar

StartChar: m
Encoding: 109 109 12
Width: 1024
VWidth: 1048
Flags: HW
LayerCount: 2
Fore
SplineSet
128 768 m 1
 128 128 l 1
 256 128 l 1
 256 640 l 1
 384 640 l 1
 384 128 l 1
 512 128 l 1
 512 640 l 1
 640 640 l 1
 640 128 l 1
 768 128 l 1
 768 640 l 1
 640 640 l 1
 640 768 l 1
 512 768 l 1
 512 640 l 1
 384 640 l 1
 384 768 l 1
 298.666666667 768 213.333333333 768 128 768 c 1
EndSplineSet
EndChar

StartChar: n
Encoding: 110 110 13
Width: 1024
VWidth: 1048
Flags: HW
LayerCount: 2
Fore
SplineSet
128 768 m 1
 128 128 l 1
 256 128 l 1
 256 640 l 1
 640 640 l 1
 640 128 l 1
 768 128 l 1
 768 640 l 1
 640 640 l 1
 640 768 l 1
 469.333333333 768 298.666666667 768 128 768 c 1
EndSplineSet
EndChar

StartChar: o
Encoding: 111 111 14
Width: 1024
VWidth: 1048
Flags: HW
LayerCount: 2
Fore
SplineSet
256 256 m 1
 256 640 l 1
 128 640 l 1
 128 256 l 1
 256 256 l 1
256 256 m 1
 256 128 l 1
 640 128 l 1
 640 256 l 1
 256 256 l 1
640 256 m 1
 768 256 l 1
 768 640 l 1
 640 640 l 1
 640 256 l 1
640 640 m 1
 640 768 l 1
 256 768 l 1
 256 640 l 1
 640 640 l 1
EndSplineSet
EndChar

StartChar: p
Encoding: 112 112 15
Width: 1024
VWidth: 1048
Flags: HW
LayerCount: 2
Fore
SplineSet
128 768 m 1
 128 0 l 1
 256 0 l 1
 256 256 l 1
 640 256 l 1
 640 384 l 1
 768 384 l 1
 768 640 l 1
 640 640 l 1
 640 384 l 1
 256 384 l 1
 256 640 l 1
 640 640 l 1
 640 768 l 1
 469.333333333 768 298.666666667 768 128 768 c 1
EndSplineSet
EndChar

StartChar: q
Encoding: 113 113 16
Width: 1024
VWidth: 1048
Flags: HW
LayerCount: 2
Fore
SplineSet
256 384 m 1
 256 640 l 1
 128 640 l 1
 128 384 l 1
 256 384 l 1
256 384 m 1
 256 256 l 1
 640 256 l 1
 640 0 l 1
 725.333333333 -0 810.666666667 0 896 0 c 1
 896 128 l 1
 768 128 l 1
 768 768 l 1
 597.333333333 768 426.666666667 768 256 768 c 1
 256 640 l 1
 640 640 l 1
 640 384 l 1
 256 384 l 1
EndSplineSet
EndChar

StartChar: r
Encoding: 114 114 17
Width: 1024
VWidth: 1048
Flags: HW
LayerCount: 2
Fore
SplineSet
384 640 m 1
 256 640 l 1
 256 128 l 1
 384 128 l 1
 384 640 l 1
384 640 m 1
 768 640 l 1
 768 768 l 1
 384 768 l 1
 384 640 l 1
EndSplineSet
EndChar

StartChar: s
Encoding: 115 115 18
Width: 1024
VWidth: 1048
Flags: HW
LayerCount: 2
Fore
SplineSet
640 256 m 1
 128 256 l 1
 128 128 l 1
 640 128 l 1
 640 256 l 1
640 256 m 1
 768 256 l 1
 768 384 l 1
 640 384 l 1
 640 256 l 1
640 384 m 1
 640 512 l 1
 256 512 l 1
 256 384 l 1
 640 384 l 1
256 512 m 1
 256 640 l 1
 128 640 l 1
 128 512 l 1
 256 512 l 1
256 640 m 1
 640 640 l 1
 640 768 l 1
 256 768 l 1
 256 640 l 1
EndSplineSet
EndChar

StartChar: t
Encoding: 116 116 19
Width: 1024
VWidth: 1048
Flags: HW
LayerCount: 2
Fore
SplineSet
384 896 m 1
 384 768 l 1
 256 768 l 1
 256 640 l 1
 384 640 l 1
 384 256 l 1
 512 256 l 1
 512 128 l 1
 768 128 l 1
 768 256 l 1
 512 256 l 1
 512 640 l 1
 640 640 l 1
 640 768 l 1
 512 768 l 1
 512 896 l 1
 384 896 l 1
EndSplineSet
EndChar

StartChar: u
Encoding: 117 117 20
Width: 1024
VWidth: 1048
Flags: HW
LayerCount: 2
Fore
SplineSet
128 768 m 1
 128 256 l 1
 256 256 l 1
 256 128 l 1
 426.666666667 128 597.333333333 128 768 128 c 1
 768 768 l 1
 640 768 l 1
 640 256 l 1
 256 256 l 1
 256 768 l 1
 128 768 l 1
EndSplineSet
EndChar

StartChar: v
Encoding: 118 118 21
Width: 1024
VWidth: 1048
Flags: HW
LayerCount: 2
Fore
SplineSet
128 768 m 1
 128 512 l 1
 256 512 l 1
 256 256 l 1
 384 256 l 1
 384 128 l 1
 512 128 l 1
 512 256 l 1
 640 256 l 1
 640 512 l 1
 768 512 l 1
 768 768 l 1
 640 768 l 1
 640 512 l 1
 512 512 l 1
 512 256 l 1
 384 256 l 1
 384 512 l 1
 256 512 l 1
 256 768 l 1
 128 768 l 1
EndSplineSet
EndChar

StartChar: w
Encoding: 119 119 22
Width: 1024
VWidth: 1048
Flags: HW
LayerCount: 2
Fore
SplineSet
128 768 m 1
 128 256 l 1
 256 256 l 1
 256 128 l 1
 384 128 l 1
 384 256 l 1
 512 256 l 1
 512 128 l 1
 640 128 l 1
 640 256 l 1
 768 256 l 1
 768 768 l 1
 640 768 l 1
 640 256 l 1
 512 256 l 1
 512 640 l 1
 384 640 l 1
 384 256 l 1
 256 256 l 1
 256 768 l 1
 128 768 l 1
EndSplineSet
EndChar

StartChar: x
Encoding: 120 120 23
Width: 1024
VWidth: 1048
Flags: HW
LayerCount: 2
Fore
SplineSet
128 768 m 1
 128 640 l 1
 256 640 l 1
 256 512 l 1
 384 512 l 1
 384 384 l 1
 256 384 l 1
 256 256 l 1
 128 256 l 1
 128 128 l 1
 256 128 l 1
 256 256 l 1
 384 256 l 1
 384 384 l 1
 512 384 l 1
 512 256 l 1
 640 256 l 1
 640 128 l 1
 768 128 l 1
 768 256 l 1
 640 256 l 1
 640 384 l 1
 512 384 l 1
 512 512 l 1
 640 512 l 1
 640 640 l 1
 768 640 l 1
 768 768 l 1
 640 768 l 1
 640 640 l 1
 512 640 l 1
 512 512 l 1
 384 512 l 1
 384 640 l 1
 256 640 l 1
 256 768 l 1
 128 768 l 1
EndSplineSet
EndChar

StartChar: y
Encoding: 121 121 24
Width: 1024
VWidth: 1048
Flags: HW
LayerCount: 2
Fore
SplineSet
128 768 m 1
 128 384 l 1
 256 384 l 1
 256 256 l 1
 640 256 l 1
 640 128 l 1
 256 128 l 1
 256 0 l 1
 640 0 l 1
 640 128 l 1
 768 128 l 1
 768 768 l 1
 640 768 l 1
 640 384 l 1
 256 384 l 1
 256 768 l 1
 128 768 l 1
EndSplineSet
EndChar

StartChar: z
Encoding: 122 122 25
Width: 1024
VWidth: 1048
Flags: HW
LayerCount: 2
Fore
SplineSet
128 768 m 1
 128 640 l 1
 512 640 l 1
 512 512 l 1
 384 512 l 1
 384 384 l 1
 256 384 l 1
 256 256 l 1
 128 256 l 1
 128 128 l 1
 768 128 l 1
 768 256 l 1
 384 256 l 1
 384 384 l 1
 512 384 l 1
 512 512 l 1
 640 512 l 1
 640 640 l 1
 768 640 l 1
 768 768 l 1
 128 768 l 1
EndSplineSet
EndChar

StartChar: A
Encoding: 65 65 26
Width: 1024
VWidth: 1048
Flags: HW
LayerCount: 2
Fore
SplineSet
768 768 m 1
 768 512 l 1
 256 512 l 1
 256 768 l 1
 128 768 l 1
 128 128 l 1
 256 128 l 1
 256 384 l 1
 768 384 l 1
 768 128 l 1
 896 128 l 1
 896 768 l 1
 768 768 l 1
768 768 m 1
 768 896 l 1
 256 896 l 1
 256 768 l 1
 768 768 l 1
EndSplineSet
EndChar

StartChar: B
Encoding: 66 66 27
Width: 1024
VWidth: 1048
Flags: HW
LayerCount: 2
Fore
SplineSet
128 896 m 1
 128 128 l 1
 341.333333333 128 554.666666667 128 768 128 c 1
 768 256 l 1
 896 256 l 1
 896 512 l 1
 768 512 l 1
 768 256 l 1
 256 256 l 1
 256 512 l 1
 768 512 l 1
 768 640 l 1
 896 640 l 1
 896 768 l 1
 768 768 l 1
 768 640 l 1
 256 640 l 1
 256 768 l 1
 768 768 l 1
 768 896 l 1
 554.666666667 896 341.333333333 896 128 896 c 1
EndSplineSet
EndChar

StartChar: C
Encoding: 67 67 28
Width: 1024
VWidth: 1048
Flags: HW
LayerCount: 2
Fore
SplineSet
768 256 m 1
 896 256 l 1
 896 384 l 1
 768 384 l 1
 768 256 l 1
768 256 m 1
 256 256 l 1
 256 128 l 1
 768 128 l 1
 768 256 l 1
256 256 m 1
 256 768 l 1
 128 768 l 1
 128 256 l 1
 256 256 l 1
768 768 m 1
 768 640 l 1
 896 640 l 1
 896 768 l 1
 768 768 l 1
768 768 m 1
 768 896 l 1
 256 896 l 1
 256 768 l 1
 768 768 l 1
EndSplineSet
EndChar

StartChar: D
Encoding: 68 68 29
Width: 1024
VWidth: 1048
Flags: HW
LayerCount: 2
Fore
SplineSet
128 896 m 1
 128 128 l 1
 298.666666667 128 469.333333333 128 640 128 c 1
 640 256 l 1
 768 256 l 1
 768 384 l 1
 640 384 l 1
 640 256 l 1
 256 256 l 1
 256 768 l 1
 640 768 l 1
 640 640 l 1
 768 640 l 1
 768 384 l 1
 896 384 l 1
 896 640 l 1
 768 640 l 1
 768 768 l 1
 640 768 l 1
 640 896 l 1
 469.333333333 896 298.666666667 896 128 896 c 1
EndSplineSet
EndChar

StartChar: E
Encoding: 69 69 30
Width: 1024
VWidth: 1048
Flags: HW
LayerCount: 2
Fore
SplineSet
128 896 m 1
 341.333333333 896 554.666666667 896 768 896 c 1
 768 768 l 1
 256 768 l 1
 256 640 l 1
 640 640 l 1
 640 512 l 1
 256 512 l 1
 256 256 l 1
 768 256 l 1
 768 128 l 1
 554.666666667 128 341.333333333 128 128 128 c 1
 128 896 l 1
EndSplineSet
EndChar

StartChar: F
Encoding: 70 70 31
Width: 1024
VWidth: 1048
Flags: HW
LayerCount: 2
Fore
SplineSet
128 896 m 1
 384 896 640 896 896 896 c 1
 896 768 l 1
 256 768 l 1
 256 640 l 1
 768 640 l 1
 768 512 l 1
 256 512 l 1
 256 128 l 1
 128 128 l 1
 128 896 l 1
EndSplineSet
EndChar

StartChar: G
Encoding: 71 71 32
Width: 1024
VWidth: 1048
Flags: HW
LayerCount: 2
Fore
SplineSet
768 256 m 1
 896 256 l 1
 896 512 l 1
 768 512 640 512 512 512 c 1
 512 384 l 1
 768 384 l 1
 768 256 l 1
768 256 m 1
 256 256 l 1
 256 128 l 1
 768 128 l 1
 768 256 l 1
256 256 m 1
 256 768 l 1
 128 768 l 1
 128 256 l 1
 256 256 l 1
768 768 m 1
 768 640 l 1
 896 640 l 1
 896 768 l 1
 768 768 l 1
768 768 m 1
 768 896 l 1
 256 896 l 1
 256 768 l 1
 768 768 l 1
EndSplineSet
EndChar

StartChar: H
Encoding: 72 72 33
Width: 1024
VWidth: 1048
Flags: HW
LayerCount: 2
Fore
SplineSet
128 896 m 1
 256 896 l 1
 256 640 l 1
 768 640 l 1
 768 896 l 1
 896 896 l 1
 896 128 l 1
 768 128 l 1
 768 512 l 1
 256 512 l 1
 256 128 l 1
 128 128 l 1
 128 896 l 1
EndSplineSet
EndChar

StartChar: I
Encoding: 73 73 34
Width: 1024
VWidth: 1048
Flags: HW
LayerCount: 2
Fore
SplineSet
256 896 m 1
 896 896 l 1
 896 768 l 1
 640 768 l 1
 640 256 l 1
 896 256 l 1
 896 128 l 1
 256 128 l 1
 256 256 l 1
 512 256 l 1
 512 768 l 1
 256 768 l 1
 256 896 l 1
EndSplineSet
EndChar

StartChar: J
Encoding: 74 74 35
Width: 1024
VWidth: 1048
Flags: HW
LayerCount: 2
Fore
SplineSet
256 256 m 1
 256 512 l 1
 128 512 l 1
 128 256 l 1
 256 256 l 1
256 256 m 1
 256 128 l 1
 768 128 l 1
 768 256 l 1
 256 256 l 1
768 256 m 1
 896 256 l 1
 896 896 l 1
 768 896 l 1
 768 256 l 1
EndSplineSet
EndChar

StartChar: K
Encoding: 75 75 36
Width: 1024
VWidth: 1048
Flags: HW
LayerCount: 2
Fore
SplineSet
128 896 m 1
 128 128 l 1
 256 128 l 1
 256 512 l 1
 512 512 l 1
 512 384 l 1
 640 384 l 1
 640 256 l 1
 768 256 l 1
 768 128 l 1
 896 128 l 1
 896 256 l 1
 768 256 l 1
 768 384 l 1
 640 384 l 1
 640 512 l 1
 512 512 l 1
 512 640 l 1
 640 640 l 1
 640 768 l 1
 768 768 l 1
 768 896 l 1
 640 896 l 1
 640 768 l 1
 512 768 l 1
 512 640 l 1
 256 640 l 1
 256 896 l 1
 128 896 l 1
EndSplineSet
EndChar

StartChar: L
Encoding: 76 76 37
Width: 1024
VWidth: 1048
Flags: HW
LayerCount: 2
Fore
SplineSet
128 896 m 1
 256 896 l 1
 256 256 l 1
 896 256 l 1
 896 128 l 1
 640 128 384 128 128 128 c 1
 128 896 l 1
EndSplineSet
EndChar

StartChar: M
Encoding: 77 77 38
Width: 1024
VWidth: 1048
Flags: HW
LayerCount: 2
Fore
SplineSet
128 896 m 1
 128 128 l 1
 256 128 l 1
 256 640 l 1
 384 640 l 1
 384 512 l 1
 640 512 l 1
 640 640 l 1
 768 640 l 1
 768 128 l 1
 896 128 l 1
 896 896 l 1
 768 896 l 1
 768 768 l 1
 640 768 l 1
 640 640 l 1
 384 640 l 1
 384 768 l 1
 256 768 l 1
 256 896 l 1
 128 896 l 1
EndSplineSet
EndChar

StartChar: N
Encoding: 78 78 39
Width: 1024
VWidth: 1048
Flags: HW
LayerCount: 2
Fore
SplineSet
128 896 m 1
 128 128 l 1
 256 128 l 1
 256 640 l 1
 384 640 l 1
 384 512 l 1
 512 512 l 1
 512 384 l 1
 640 384 l 1
 640 256 l 1
 768 256 l 1
 768 128 l 1
 896 128 l 1
 896 896 l 1
 768 896 l 1
 768 384 l 1
 640 384 l 1
 640 512 l 1
 512 512 l 1
 512 640 l 1
 384 640 l 1
 384 768 l 1
 256 768 l 1
 256 896 l 1
 128 896 l 1
EndSplineSet
EndChar

StartChar: O
Encoding: 79 79 40
Width: 1024
VWidth: 1048
Flags: HW
LayerCount: 2
Fore
SplineSet
256 256 m 1
 256 768 l 1
 128 768 l 1
 128 256 l 1
 256 256 l 1
256 256 m 1
 256 128 l 1
 768 128 l 1
 768 256 l 1
 256 256 l 1
768 256 m 1
 896 256 l 1
 896 768 l 1
 768 768 l 1
 768 256 l 1
768 768 m 1
 768 896 l 1
 256 896 l 1
 256 768 l 1
 768 768 l 1
EndSplineSet
EndChar

StartChar: P
Encoding: 80 80 41
Width: 1024
VWidth: 1048
Flags: HW
LayerCount: 2
Fore
SplineSet
128 896 m 1
 128 128 l 1
 256 128 l 1
 256 384 l 1
 768 384 l 1
 768 512 l 1
 896 512 l 1
 896 768 l 1
 768 768 l 1
 768 512 l 1
 256 512 l 1
 256 768 l 1
 768 768 l 1
 768 896 l 1
 554.666666667 896 341.333333333 896 128 896 c 1
EndSplineSet
EndChar

StartChar: Q
Encoding: 81 81 42
Width: 1024
VWidth: 1048
Flags: HW
LayerCount: 2
Fore
SplineSet
256 256 m 1
 256 768 l 1
 128 768 l 1
 128 256 l 1
 256 256 l 1
256 256 m 1
 256 128 l 1
 768 128 l 1
 768 256 l 1
 640 256 l 1
 640 384 l 1
 512 384 l 1
 512 512 l 1
 384 512 l 1
 384 384 l 1
 512 384 l 1
 512 256 l 1
 256 256 l 1
768 256 m 1
 896 256 l 1
 896 768 l 1
 768 768 l 1
 768 256 l 1
768 768 m 1
 768 896 l 1
 256 896 l 1
 256 768 l 1
 768 768 l 1
EndSplineSet
EndChar

StartChar: R
Encoding: 82 82 43
Width: 1024
VWidth: 1048
Flags: HW
LayerCount: 2
Fore
SplineSet
128 896 m 1
 128 128 l 1
 256 128 l 1
 256 384 l 1
 640 384 l 1
 640 256 l 1
 768 256 l 1
 768 128 l 1
 896 128 l 1
 896 256 l 1
 768 256 l 1
 768 341.333333333 768 426.666666667 768 512 c 1
 896 512 l 1
 896 768 l 1
 768 768 l 1
 768 512 l 1
 256 512 l 1
 256 768 l 1
 768 768 l 1
 768 896 l 1
 554.666666667 896 341.333333333 896 128 896 c 1
EndSplineSet
EndChar

StartChar: S
Encoding: 83 83 44
Width: 1024
VWidth: 1048
Flags: HW
LayerCount: 2
Fore
SplineSet
256 256 m 1
 256 384 l 1
 128 384 l 1
 128 256 l 1
 256 256 l 1
256 256 m 1
 256 128 l 1
 768 128 l 1
 768 256 l 1
 256 256 l 1
768 256 m 1
 896 256 l 1
 896 512 l 1
 768 512 l 1
 768 256 l 1
768 512 m 1
 768 640 l 1
 256 640 l 1
 256 512 l 1
 768 512 l 1
256 640 m 1
 256 768 l 1
 128 768 l 1
 128 640 l 1
 256 640 l 1
256 768 m 1
 768 768 l 1
 768 896 l 1
 256 896 l 1
 256 768 l 1
EndSplineSet
EndChar

StartChar: T
Encoding: 84 84 45
Width: 1024
VWidth: 1048
Flags: HW
LayerCount: 2
Fore
SplineSet
0 896 m 1
 896 896 l 1
 896 768 l 1
 512 768 l 1
 512 128 l 1
 384 128 l 1
 384 768 l 1
 0 768 l 1
 0 896 l 1
EndSplineSet
EndChar

StartChar: U
Encoding: 85 85 46
Width: 1024
VWidth: 1048
Flags: HW
LayerCount: 2
Fore
SplineSet
128 896 m 1
 128 256 l 1
 256 256 l 1
 256 128 l 1
 896 128 l 1
 896 384 896 640 896 896 c 1
 768 896 l 1
 768 256 l 1
 256 256 l 1
 256 896 l 1
 128 896 l 1
EndSplineSet
EndChar

StartChar: V
Encoding: 86 86 47
Width: 1024
VWidth: 1048
Flags: HW
LayerCount: 2
Fore
SplineSet
128 896 m 1
 128 384 l 1
 256 384 l 1
 256 256 l 1
 384 256 l 1
 384 128 l 1
 640 128 l 1
 640 256 l 1
 768 256 l 1
 768 384 l 1
 896 384 l 1
 896 896 l 1
 768 896 l 1
 768 384 l 1
 640 384 l 1
 640 256 l 1
 384 256 l 1
 384 384 l 1
 256 384 l 1
 256 896 l 1
 128 896 l 1
EndSplineSet
EndChar

StartChar: W
Encoding: 87 87 48
Width: 1024
VWidth: 1048
Flags: HW
LayerCount: 2
Fore
SplineSet
128 896 m 1
 128 256 l 1
 256 256 l 1
 256 128 l 1
 384 128 l 1
 384 256 l 1
 640 256 l 1
 640 128 l 1
 768 128 l 1
 768 256 l 1
 896 256 l 1
 896 896 l 1
 768 896 l 1
 768 256 l 1
 640 256 l 1
 640 384 l 1
 384 384 l 1
 384 256 l 1
 256 256 l 1
 256 896 l 1
 128 896 l 1
EndSplineSet
EndChar

StartChar: X
Encoding: 88 88 49
Width: 1024
VWidth: 1048
Flags: HW
LayerCount: 2
Fore
SplineSet
128 896 m 1
 128 768 l 1
 256 768 l 1
 256 640 l 1
 384 640 l 1
 384 384 l 1
 256 384 l 1
 256 256 l 1
 128 256 l 1
 128 128 l 1
 256 128 l 1
 256 256 l 1
 384 256 l 1
 384 384 l 1
 640 384 l 1
 640 256 l 1
 768 256 l 1
 768 128 l 1
 896 128 l 1
 896 256 l 1
 768 256 l 1
 768 384 l 1
 640 384 l 1
 640 640 l 1
 768 640 l 1
 768 768 l 1
 896 768 l 1
 896 896 l 1
 768 896 l 1
 768 768 l 1
 640 768 l 1
 640 640 l 1
 384 640 l 1
 384 768 l 1
 256 768 l 1
 256 896 l 1
 128 896 l 1
EndSplineSet
EndChar

StartChar: Y
Encoding: 89 89 50
Width: 1024
VWidth: 1048
Flags: HW
LayerCount: 2
Fore
SplineSet
0 896 m 1
 0 768 l 1
 128 768 l 1
 128 640 l 1
 256 640 l 1
 256 512 l 1
 384 512 l 1
 384 128 l 1
 512 128 l 1
 512 512 l 1
 640 512 l 1
 640 640 l 1
 768 640 l 1
 768 768 l 1
 896 768 l 1
 896 896 l 1
 768 896 l 1
 768 768 l 1
 640 768 l 1
 640 640 l 1
 512 640 l 1
 512 512 l 1
 384 512 l 1
 384 640 l 1
 256 640 l 1
 256 768 l 1
 128 768 l 1
 128 896 l 1
 0 896 l 1
EndSplineSet
EndChar

StartChar: Z
Encoding: 90 90 51
Width: 1024
VWidth: 1048
Flags: HW
LayerCount: 2
Fore
SplineSet
128 896 m 1
 128 768 l 1
 640 768 l 1
 640 640 l 1
 512 640 l 1
 512 512 l 1
 384 512 l 1
 384 384 l 1
 256 384 l 1
 256 256 l 1
 128 256 l 1
 128 128 l 1
 896 128 l 1
 896 256 l 1
 384 256 l 1
 384 384 l 1
 512 384 l 1
 512 512 l 1
 640 512 l 1
 640 640 l 1
 768 640 l 1
 768 768 l 1
 896 768 l 1
 896 896 l 1
 128 896 l 1
EndSplineSet
EndChar

StartChar: zero
Encoding: 48 48 52
Width: 1024
VWidth: 1048
Flags: HW
LayerCount: 2
Fore
SplineSet
512 512 m 1
 640 512 l 1
 640 640 l 1
 512 640 l 1
 512 512 l 1
512 512 m 1
 384 512 l 1
 384 384 l 1
 512 384 l 1
 512 512 l 1
384 384 m 1
 256 384 l 1
 256 768 l 1
 128 768 l 1
 128 256 l 1
 256 256 l 1
 256 128 l 1
 768 128 l 1
 768 256 l 1
 384 256 l 1
 384 384 l 1
768 256 m 1
 896 256 l 1
 896 768 l 1
 768 768 l 1
 768 896 l 1
 256 896 l 1
 256 768 l 1
 640 768 l 1
 640 640 l 1
 768 640 l 1
 768 256 l 1
EndSplineSet
EndChar

StartChar: one
Encoding: 49 49 53
Width: 1024
VWidth: 1048
Flags: HW
LayerCount: 2
Fore
SplineSet
384 768 m 1
 256 768 l 1
 256 640 l 1
 384 640 l 1
 384 768 l 1
384 768 m 1
 512 768 l 1
 512 256 l 1
 256 256 l 1
 256 128 l 1
 896 128 l 1
 896 256 l 1
 640 256 l 1
 640 896 l 1
 554.666666667 896 469.333333333 896 384 896 c 1
 384 768 l 1
EndSplineSet
EndChar

StartChar: two
Encoding: 50 50 54
Width: 1024
VWidth: 1048
Flags: HW
LayerCount: 2
Fore
SplineSet
256 384 m 1
 128 384 l 1
 128 298.666666667 128 213.333333333 128 128 c 1
 896 128 l 1
 896 256 l 1
 256 256 l 1
 256 384 l 1
256 384 m 1
 768 384 l 1
 768 512 l 1
 256 512 l 1
 256 384 l 1
768 512 m 1
 896 512 l 1
 896 768 l 1
 768 768 l 1
 768 512 l 1
768 768 m 1
 768 896 l 1
 256 896 l 1
 256 768 l 1
 128 768 l 1
 128 640 l 1
 256 640 l 1
 256 768 l 1
 768 768 l 1
EndSplineSet
EndChar

StartChar: three
Encoding: 51 51 55
Width: 1024
VWidth: 1048
Flags: HW
LayerCount: 2
Fore
SplineSet
256 256 m 1
 256 384 l 1
 128 384 l 1
 128 256 l 1
 256 256 l 1
256 256 m 1
 256 128 l 1
 768 128 l 1
 768 256 l 1
 256 256 l 1
768 256 m 1
 896 256 l 1
 896 512 l 1
 768 512 l 1
 768 256 l 1
768 512 m 1
 768 640 l 1
 512 640 l 1
 512 512 l 1
 768 512 l 1
768 640 m 1
 896 640 l 1
 896 768 l 1
 768 768 l 1
 768 640 l 1
768 768 m 1
 768 896 l 1
 256 896 l 1
 256 768 l 1
 128 768 l 1
 128 640 l 1
 256 640 l 1
 256 768 l 1
 768 768 l 1
EndSplineSet
EndChar

StartChar: four
Encoding: 52 52 56
Width: 1024
VWidth: 1048
Flags: HW
LayerCount: 2
Fore
SplineSet
512 896 m 1
 512 768 l 1
 384 768 l 1
 384 640 l 1
 256 640 l 1
 256 512 l 1
 384 512 l 1
 384 640 l 1
 512 640 l 1
 512 384 l 1
 256 384 l 1
 256 512 l 1
 128 512 l 1
 128 426.666666667 128 341.333333333 128 256 c 1
 512 256 l 1
 512 128 l 1
 640 128 l 1
 640 256 l 1
 896 256 l 1
 896 384 l 1
 640 384 l 1
 640 896 l 1
 512 896 l 1
EndSplineSet
EndChar

StartChar: five
Encoding: 53 53 57
Width: 1024
VWidth: 1048
Flags: HW
LayerCount: 2
Fore
SplineSet
128 896 m 1
 128 512 l 1
 768 512 l 1
 768 256 l 1
 256 256 l 1
 256 384 l 1
 128 384 l 1
 128 256 l 1
 256 256 l 1
 256 128 l 1
 768 128 l 1
 768 256 l 1
 896 256 l 1
 896 512 l 1
 768 512 l 1
 768 640 l 1
 256 640 l 1
 256 768 l 1
 896 768 l 1
 896 896 l 1
 128 896 l 1
EndSplineSet
EndChar

StartChar: six
Encoding: 54 54 58
Width: 1024
VWidth: 1048
Flags: HW
LayerCount: 2
Fore
SplineSet
768 256 m 1
 256 256 l 1
 256 128 l 1
 768 128 l 1
 768 256 l 1
768 256 m 1
 896 256 l 1
 896 512 l 1
 768 512 l 1
 768 256 l 1
768 512 m 1
 768 640 l 1
 256 640 l 1
 256 768 l 1
 128 768 l 1
 128 256 l 1
 256 256 l 1
 256 512 l 1
 768 512 l 1
256 768 m 1
 768 768 l 1
 768 896 l 1
 256 896 l 1
 256 768 l 1
EndSplineSet
EndChar

StartChar: seven
Encoding: 55 55 59
Width: 1024
VWidth: 1048
Flags: HW
LayerCount: 2
Fore
SplineSet
128 896 m 1
 128 768 l 1
 768 768 l 1
 768 640 l 1
 640 640 l 1
 640 512 l 1
 512 512 l 1
 512 384 l 1
 384 384 l 1
 384 128 l 1
 512 128 l 1
 512 384 l 1
 640 384 l 1
 640 512 l 1
 768 512 l 1
 768 640 l 1
 896 640 l 1
 896 725.333333333 896 810.666666667 896 896 c 1
 128 896 l 1
EndSplineSet
EndChar

StartChar: eight
Encoding: 56 56 60
Width: 1024
VWidth: 1048
Flags: HW
LayerCount: 2
Fore
SplineSet
256 256 m 1
 256 512 l 1
 128 512 l 1
 128 256 l 1
 256 256 l 1
256 256 m 1
 256 128 l 1
 768 128 l 1
 768 256 l 1
 256 256 l 1
768 256 m 1
 896 256 l 1
 896 512 l 1
 768 512 l 1
 768 256 l 1
768 512 m 1
 768 640 l 1
 256 640 l 1
 256 768 l 1
 128 768 l 1
 128 640 l 1
 256 640 l 1
 256 512 l 1
 768 512 l 1
768 640 m 1
 896 640 l 1
 896 768 l 1
 768 768 l 1
 768 640 l 1
768 768 m 1
 768 896 l 1
 256 896 l 1
 256 768 l 1
 768 768 l 1
EndSplineSet
EndChar

StartChar: nine
Encoding: 57 57 61
Width: 1024
VWidth: 1048
Flags: HW
LayerCount: 2
Fore
SplineSet
768 256 m 1
 256 256 l 1
 256 128 l 1
 768 128 l 1
 768 256 l 1
768 256 m 1
 896 256 l 1
 896 768 l 1
 768 768 l 1
 768 512 l 1
 256 512 l 1
 256 768 l 1
 128 768 l 1
 128 512 l 1
 256 512 l 1
 256 384 l 1
 768 384 l 1
 768 256 l 1
768 768 m 1
 768 896 l 1
 256 896 l 1
 256 768 l 1
 768 768 l 1
EndSplineSet
EndChar

StartChar: braceleft
Encoding: 123 123 62
Width: 1024
VWidth: 1048
Flags: HW
LayerCount: 2
Fore
SplineSet
512 896 m 1
 512 810.666666667 512 725.333333333 512 640 c 1
 256 640 l 1
 256 384 l 1
 512 384 l 1
 512 298.666666667 512 213.333333333 512 128 c 1
 896 128 l 1
 896 256 l 1
 640 256 l 1
 640 384 l 1
 512 384 l 1
 512 640 l 1
 640 640 l 1
 640 768 l 1
 896 768 l 1
 896 896 l 1
 512 896 l 1
EndSplineSet
EndChar

StartChar: bar
Encoding: 124 124 63
Width: 1024
VWidth: 1048
Flags: HW
LayerCount: 2
Fore
SplineSet
512 896 m 1
 640 896 l 1
 640 128 l 1
 512 128 l 1
 512 896 l 1
EndSplineSet
EndChar

StartChar: braceright
Encoding: 125 125 64
Width: 1024
VWidth: 1048
Flags: HW
LayerCount: 2
Fore
SplineSet
128 896 m 1
 128 768 l 1
 384 768 l 1
 384 640 l 1
 512 640 l 1
 512 384 l 1
 384 384 l 1
 384 256 l 1
 128 256 l 1
 128 128 l 1
 512 128 l 1
 512 213.333333333 512 298.666666667 512 384 c 1
 768 384 l 1
 768 640 l 1
 512 640 l 1
 512 725.333333333 512 810.666666667 512 896 c 1
 128 896 l 1
EndSplineSet
EndChar

StartChar: asciitilde
Encoding: 126 126 65
Width: 1024
VWidth: 1048
Flags: HW
LayerCount: 2
Fore
SplineSet
768 768 m 1
 896 768 l 1
 896 896 l 1
 768 896 l 1
 768 768 l 1
768 768 m 1
 512 768 l 1
 512 640 l 1
 768 640 l 1
 768 768 l 1
512 768 m 1
 512 896 l 1
 256 896 l 1
 256 768 l 1
 128 768 l 1
 128 640 l 1
 256 640 l 1
 256 768 l 1
 512 768 l 1
EndSplineSet
EndChar

StartChar: exclam
Encoding: 33 33 66
Width: 1024
VWidth: 1048
Flags: HW
LayerCount: 2
Fore
SplineSet
384 256 m 1
 512 256 l 1
 512 128 l 1
 384 128 l 1
 384 256 l 1
384 896 m 1
 512 896 l 1
 512 384 l 1
 384 384 l 1
 384 896 l 1
EndSplineSet
EndChar

StartChar: quotedbl
Encoding: 34 34 67
Width: 1024
VWidth: 1048
Flags: HW
LayerCount: 2
Fore
SplineSet
640 896 m 1
 768 896 l 1
 768 640 l 1
 640 640 l 1
 640 896 l 1
256 896 m 1
 384 896 l 1
 384 640 l 1
 256 640 l 1
 256 896 l 1
EndSplineSet
EndChar

StartChar: numbersign
Encoding: 35 35 68
Width: 1024
VWidth: 1048
Flags: HW
LayerCount: 2
Fore
SplineSet
384 640 m 1
 384 384 l 1
 640 384 l 1
 640 640 l 1
 384 640 l 1
256 896 m 1
 384 896 l 1
 384 768 l 1
 640 768 l 1
 640 896 l 1
 768 896 l 1
 768 768 l 1
 896 768 l 1
 896 640 l 1
 768 640 l 1
 768 384 l 1
 896 384 l 1
 896 256 l 1
 768 256 l 1
 768 128 l 1
 640 128 l 1
 640 256 l 1
 384 256 l 1
 384 128 l 1
 256 128 l 1
 256 256 l 1
 128 256 l 1
 128 384 l 1
 256 384 l 1
 256 640 l 1
 128 640 l 1
 128 768 l 1
 256 768 l 1
 256 896 l 1
EndSplineSet
EndChar

StartChar: dollar
Encoding: 36 36 69
Width: 1024
VWidth: 1048
Flags: HW
LayerCount: 2
Fore
SplineSet
640 384 m 1
 640 256 l 1
 768 256 l 1
 768 384 l 1
 640 384 l 1
384 640 m 1
 384 512 l 1
 512 512 l 1
 512 640 l 1
 384 640 l 1
512 896 m 1
 640 896 l 1
 640 768 l 1
 896 768 l 1
 896 640 l 1
 640 640 l 1
 640 512 l 1
 896 512 l 1
 896 128 l 1
 640 128 l 1
 640 0 l 1
 512 0 l 1
 512 128 l 1
 256 128 l 1
 256 256 l 1
 512 256 l 1
 512 384 l 1
 256 384 l 1
 256 768 l 1
 512 768 l 1
 512 896 l 1
EndSplineSet
EndChar

StartChar: percent
Encoding: 37 37 70
Width: 1024
VWidth: 1048
Flags: HW
LayerCount: 2
Fore
SplineSet
640 384 m 1
 640 128 l 1
 896 128 l 1
 896 384 l 1
 640 384 l 1
128 896 m 1
 128 640 l 1
 384 640 l 1
 384 896 l 1
 128 896 l 1
256 256 m 1
 128 256 l 1
 128 128 l 1
 256 128 l 1
 256 256 l 1
256 256 m 1
 384 256 l 1
 384 384 l 1
 256 384 l 1
 256 256 l 1
384 384 m 1
 512 384 l 1
 512 512 l 1
 384 512 l 1
 384 384 l 1
512 512 m 1
 640 512 l 1
 640 640 l 1
 512 640 l 1
 512 512 l 1
640 640 m 1
 768 640 l 1
 768 768 l 1
 640 768 l 1
 640 640 l 1
768 768 m 1
 896 768 l 1
 896 896 l 1
 768 896 l 1
 768 768 l 1
EndSplineSet
EndChar

StartChar: ampersand
Encoding: 38 38 71
Width: 1024
VWidth: 1048
Flags: HW
LayerCount: 2
Fore
SplineSet
256 384 m 1
 384 384 l 1
 384 512 l 1
 256 512 l 1
 256 384 l 1
256 384 m 1
 128 384 l 1
 128 256 l 1
 256 256 l 1
 256 384 l 1
256 256 m 1
 256 128 l 1
 640 128 l 1
 640 256 l 1
 256 256 l 1
768 384 m 1
 896 384 l 1
 896 512 l 1
 768 512 l 1
 768 384 l 1
768 384 m 1
 640 384 l 1
 640 256 l 1
 768 256 l 1
 768 128 l 1
 896 128 l 1
 896 256 l 1
 768 256 l 1
 768 384 l 1
640 384 m 1
 640 512 l 1
 512 512 l 1
 512 384 l 1
 640 384 l 1
512 512 m 1
 512 640 l 1
 384 640 l 1
 384 768 l 1
 256 768 l 1
 256 640 l 1
 384 640 l 1
 384 512 l 1
 512 512 l 1
512 640 m 1
 640 640 l 1
 640 768 l 1
 512 768 l 1
 512 640 l 1
512 768 m 1
 512 896 l 1
 384 896 l 1
 384 768 l 1
 512 768 l 1
EndSplineSet
EndChar

StartChar: quotesingle
Encoding: 39 39 72
Width: 1024
VWidth: 1048
Flags: HW
LayerCount: 2
Fore
SplineSet
512 768 m 1
 384 768 l 1
 384 640 l 1
 512 640 l 1
 512 768 l 1
512 768 m 1
 640 768 l 1
 640 896 l 1
 512 896 l 1
 512 768 l 1
EndSplineSet
EndChar

StartChar: parenleft
Encoding: 40 40 73
Width: 1024
VWidth: 1048
Flags: HW
LayerCount: 2
Fore
SplineSet
640 256 m 1
 640 128 l 1
 768 128 l 1
 768 256 l 1
 640 256 l 1
640 256 m 1
 640 768 l 1
 512 768 l 1
 512 256 l 1
 640 256 l 1
640 768 m 1
 768 768 l 1
 768 896 l 1
 640 896 l 1
 640 768 l 1
EndSplineSet
EndChar

StartChar: parenright
Encoding: 41 41 74
Width: 1024
VWidth: 1048
Flags: HW
LayerCount: 2
Fore
SplineSet
256 896 m 1
 256 768 l 1
 384 768 l 1
 384 256 l 1
 256 256 l 1
 256 128 l 1
 384 128 l 1
 384 256 l 1
 512 256 l 1
 512 768 l 1
 384 768 l 1
 384 896 l 1
 256 896 l 1
EndSplineSet
EndChar

StartChar: asterisk
Encoding: 42 42 75
Width: 1024
VWidth: 1048
Flags: HW
LayerCount: 2
Fore
SplineSet
384 768 m 1
 384 640 l 1
 512 640 l 1
 512 512 l 1
 256 512 l 1
 256 384 l 1
 512 384 l 1
 512 256 l 1
 384 256 l 1
 384 128 l 1
 512 128 l 1
 512 256 l 1
 640 256 l 1
 640 128 l 1
 768 128 l 1
 768 256 l 1
 640 256 l 1
 640 384 l 1
 896 384 l 1
 896 512 l 1
 640 512 l 1
 640 640 l 1
 768 640 l 1
 768 768 l 1
 640 768 l 1
 640 640 l 1
 512 640 l 1
 512 768 l 1
 384 768 l 1
EndSplineSet
EndChar

StartChar: plus
Encoding: 43 43 76
Width: 1024
VWidth: 1048
Flags: HW
LayerCount: 2
Fore
SplineSet
512 768 m 1
 640 768 l 1
 640 512 l 1
 896 512 l 1
 896 384 l 1
 640 384 l 1
 640 128 l 1
 512 128 l 1
 512 384 l 1
 256 384 l 1
 256 512 l 1
 512 512 l 1
 512 768 l 1
EndSplineSet
EndChar

StartChar: comma
Encoding: 44 44 77
Width: 1024
VWidth: 1048
Flags: HW
LayerCount: 2
Fore
SplineSet
512 128 m 1
 384 128 l 1
 384 0 l 1
 512 0 l 1
 512 128 l 1
512 128 m 1
 640 128 l 1
 640 384 l 1
 512 384 l 1
 512 128 l 1
EndSplineSet
EndChar

StartChar: hyphen
Encoding: 45 45 78
Width: 1024
VWidth: 1048
Flags: HW
LayerCount: 2
Fore
SplineSet
256 512 m 1
 896 512 l 1
 896 384 l 1
 256 384 l 1
 256 512 l 1
EndSplineSet
EndChar

StartChar: period
Encoding: 46 46 79
Width: 1024
VWidth: 1048
Flags: HW
LayerCount: 2
Fore
SplineSet
384 384 m 1
 640 384 l 1
 640 128 l 1
 384 128 l 1
 384 384 l 1
EndSplineSet
EndChar

StartChar: slash
Encoding: 47 47 80
Width: 1024
VWidth: 1048
Flags: HW
LayerCount: 2
Fore
SplineSet
384 256 m 1
 256 256 l 1
 256 128 l 1
 384 128 l 1
 384 256 l 1
384 256 m 1
 512 256 l 1
 512 384 l 1
 384 384 l 1
 384 256 l 1
512 384 m 1
 640 384 l 1
 640 512 l 1
 512 512 l 1
 512 384 l 1
640 512 m 1
 768 512 l 1
 768 640 l 1
 640 640 l 1
 640 512 l 1
768 640 m 1
 896 640 l 1
 896 768 l 1
 768 768 l 1
 768 640 l 1
EndSplineSet
EndChar

StartChar: colon
Encoding: 58 58 81
Width: 1024
VWidth: 1048
Flags: HW
LayerCount: 2
Fore
SplineSet
384 256 m 1
 512 256 l 1
 512 128 l 1
 384 128 l 1
 384 256 l 1
384 640 m 1
 512 640 l 1
 512 512 l 1
 384 512 l 1
 384 640 l 1
EndSplineSet
EndChar

StartChar: semicolon
Encoding: 59 59 82
Width: 1024
VWidth: 1048
Flags: HW
LayerCount: 2
Fore
SplineSet
384 768 m 1
 384 640 l 1
 512 640 l 1
 512 768 l 1
 384 768 l 1
384 128 m 1
 256 128 l 1
 256 0 l 1
 384 0 l 1
 384 128 l 1
384 128 m 1
 512 128 l 1
 512 384 l 1
 384 384 l 1
 384 128 l 1
EndSplineSet
EndChar

StartChar: less
Encoding: 60 60 83
Width: 1024
VWidth: 1048
Flags: HW
LayerCount: 2
Fore
SplineSet
640 256 m 1
 640 128 l 1
 768 128 l 1
 768 256 l 1
 640 256 l 1
640 256 m 1
 640 384 l 1
 512 384 l 1
 512 256 l 1
 640 256 l 1
512 384 m 1
 512 512 l 1
 384 512 l 1
 384 384 l 1
 512 384 l 1
512 512 m 1
 640 512 l 1
 640 640 l 1
 512 640 l 1
 512 512 l 1
640 640 m 1
 768 640 l 1
 768 768 l 1
 640 768 l 1
 640 640 l 1
EndSplineSet
EndChar

StartChar: equal
Encoding: 61 61 84
Width: 1024
VWidth: 1048
Flags: HW
LayerCount: 2
Fore
SplineSet
256 384 m 1
 896 384 l 1
 896 256 l 1
 256 256 l 1
 256 384 l 1
256 640 m 1
 896 640 l 1
 896 512 l 1
 256 512 l 1
 256 640 l 1
EndSplineSet
EndChar

StartChar: greater
Encoding: 62 62 85
Width: 1024
VWidth: 1048
Flags: HW
LayerCount: 2
Fore
SplineSet
384 768 m 1
 384 640 l 1
 512 640 l 1
 512 512 l 1
 640 512 l 1
 640 384 l 1
 512 384 l 1
 512 256 l 1
 384 256 l 1
 384 128 l 1
 512 128 l 1
 512 256 l 1
 640 256 l 1
 640 384 l 1
 768 384 l 1
 768 512 l 1
 640 512 l 1
 640 640 l 1
 512 640 l 1
 512 768 l 1
 384 768 l 1
EndSplineSet
EndChar

StartChar: question
Encoding: 63 63 86
Width: 1024
VWidth: 1048
Flags: HW
LayerCount: 2
Fore
SplineSet
512 256 m 1
 512 128 l 1
 640 128 l 1
 640 256 l 1
 512 256 l 1
640 512 m 1
 512 512 l 1
 512 384 l 1
 640 384 l 1
 640 512 l 1
640 512 m 1
 768 512 l 1
 768 640 l 1
 640 640 l 1
 640 512 l 1
768 640 m 1
 896 640 l 1
 896 768 l 1
 768 768 l 1
 768 640 l 1
768 768 m 1
 768 896 l 1
 256 896 l 1
 256 768 l 1
 128 768 l 1
 128 640 l 1
 256 640 l 1
 256 768 l 1
 768 768 l 1
EndSplineSet
EndChar

StartChar: bracketleft
Encoding: 91 91 87
Width: 1024
VWidth: 1048
Flags: HW
LayerCount: 2
Fore
SplineSet
512 896 m 1
 768 896 l 1
 768 768 l 1
 640 768 l 1
 640 256 l 1
 768 256 l 1
 768 128 l 1
 512 128 l 1
 512 896 l 1
EndSplineSet
EndChar

StartChar: backslash
Encoding: 92 92 88
Width: 1024
VWidth: 1048
Flags: HW
LayerCount: 2
Fore
SplineSet
128 768 m 1
 128 640 l 1
 256 640 l 1
 256 512 l 1
 384 512 l 1
 384 384 l 1
 512 384 l 1
 512 256 l 1
 640 256 l 1
 640 128 l 1
 768 128 l 1
 768 256 l 1
 640 256 l 1
 640 384 l 1
 512 384 l 1
 512 512 l 1
 384 512 l 1
 384 640 l 1
 256 640 l 1
 256 768 l 1
 128 768 l 1
EndSplineSet
EndChar

StartChar: bracketright
Encoding: 93 93 89
Width: 1024
VWidth: 1048
Flags: HW
LayerCount: 2
Fore
SplineSet
256 896 m 1
 512 896 l 1
 512 128 l 1
 256 128 l 1
 256 256 l 1
 384 256 l 1
 384 768 l 1
 256 768 l 1
 256 896 l 1
EndSplineSet
EndChar

StartChar: asciicircum
Encoding: 94 94 90
Width: 1024
VWidth: 1048
Flags: HW
LayerCount: 2
Fore
SplineSet
384 896 m 1
 384 768 l 1
 256 768 l 1
 256 640 l 1
 128 640 l 1
 128 512 l 1
 256 512 l 1
 256 640 l 1
 384 640 l 1
 384 128 l 1
 512 128 l 1
 512 640 l 1
 640 640 l 1
 640 512 l 1
 768 512 l 1
 768 640 l 1
 640 640 l 1
 640 768 l 1
 512 768 l 1
 512 896 l 1
 384 896 l 1
EndSplineSet
EndChar

StartChar: underscore
Encoding: 95 95 91
Width: 1024
VWidth: 1048
Flags: HW
LayerCount: 2
Fore
SplineSet
0 128 m 1
 1024 128 l 1
 1024 0 l 1
 0 0 l 1
 0 128 l 1
EndSplineSet
EndChar

StartChar: at
Encoding: 64 64 92
Width: 1024
VWidth: 1048
Flags: HW
LayerCount: 2
Fore
SplineSet
256 256 m 1
 256 128 l 1
 768 128 l 1
 768 256 l 1
 256 256 l 1
256 256 m 1
 256 768 l 1
 128 768 l 1
 128 256 l 1
 256 256 l 1
768 768 m 1
 768 640 l 1
 640 640 l 1
 640 512 l 1
 512 512 l 1
 512 640 l 1
 384 640 l 1
 384 554.666666667 384 469.333333333 384 384 c 1
 554.666666667 384 725.333333333 384 896 384 c 1
 896 768 l 1
 768 768 l 1
768 768 m 1
 768 896 l 1
 256 896 l 1
 256 768 l 1
 512 768 l 1
 512 640 l 1
 640 640 l 1
 640 768 l 1
 768 768 l 1
EndSplineSet
EndChar

StartChar: uni007F
Encoding: 127 127 93
Width: 1024
VWidth: 1048
Flags: HW
LayerCount: 2
Fore
SplineSet
384 384 m 1
 384 256 l 1
 640 256 l 1
 640 384 l 1
 384 384 l 1
384 384 m 1
 384 640 l 1
 256 640 l 1
 256 384 l 1
 384 384 l 1
384 640 m 1
 640 640 l 1
 640 768 l 1
 384 768 l 1
 384 640 l 1
128 768 m 1
 256 768 l 1
 256 896 l 1
 128 896 l 1
 128 768 l 1
128 768 m 1
 0 768 l 1
 0 256 l 1
 128 256 l 1
 128 768 l 1
128 256 m 1
 128 128 l 1
 256 128 l 1
 256 256 l 1
 128 256 l 1
256 128 m 1
 256 0 l 1
 768 0 l 1
 768 128 l 1
 256 128 l 1
768 128 m 1
 896 128 l 1
 896 256 l 1
 768 256 l 1
 768 128 l 1
896 256 m 1
 1024 256 l 1
 1024 768 l 1
 896 768 l 1
 896 256 l 1
896 768 m 1
 896 896 l 1
 768 896 l 1
 768 768 l 1
 896 768 l 1
768 896 m 1
 768 1024 l 1
 256 1024 l 1
 256 896 l 1
 768 896 l 1
EndSplineSet
EndChar

StartChar: grave
Encoding: 96 96 94
Width: 1024
VWidth: 1048
Flags: HW
LayerCount: 2
Fore
SplineSet
768 768 m 1
 768 640 l 1
 896 640 l 1
 896 768 l 1
 768 768 l 1
768 768 m 1
 768 896 l 1
 384 896 l 1
 384 768 l 1
 256 768 l 1
 256 640 l 1
 128 640 l 1
 128 512 l 1
 256 512 l 1
 256 256 l 1
 128 256 l 1
 128 128 l 1
 896 128 l 1
 896 256 l 1
 384 256 l 1
 384 512 l 1
 640 512 l 1
 640 640 l 1
 384 640 l 1
 384 768 l 1
 768 768 l 1
EndSplineSet
EndChar

StartChar: uni0001
Encoding: 1 1 95
Width: 1024
VWidth: 1048
Flags: HW
LayerCount: 2
Fore
SplineSet
512 1024 m 1
 1024 1024 l 1
 1024 512 l 1
 512 512 l 1
 512 1024 l 1
EndSplineSet
EndChar

StartChar: uni0002
Encoding: 2 2 96
Width: 1024
VWidth: 1048
Flags: HW
LayerCount: 2
Fore
SplineSet
0 1024 m 1
 512 1024 l 1
 512 512 l 1
 0 512 l 1
 0 1024 l 1
EndSplineSet
EndChar

StartChar: uni0003
Encoding: 3 3 97
Width: 1024
VWidth: 1048
Flags: HW
LayerCount: 2
Fore
SplineSet
0 1024 m 1
 1024 1024 l 1
 1024 512 l 1
 0 512 l 1
 0 1024 l 1
EndSplineSet
EndChar

StartChar: uni0004
Encoding: 4 4 98
Width: 1024
VWidth: 1048
Flags: HW
LayerCount: 2
Fore
SplineSet
512 512 m 1
 1024 512 l 1
 1024 0 l 1
 512 0 l 1
 512 512 l 1
EndSplineSet
EndChar

StartChar: uni0005
Encoding: 5 5 99
Width: 1024
VWidth: 1048
Flags: HW
LayerCount: 2
Fore
SplineSet
512 1024 m 1
 1024 1024 l 1
 1024 0 l 1
 512 0 l 1
 512 1024 l 1
EndSplineSet
EndChar

StartChar: uni0006
Encoding: 6 6 100
Width: 1024
VWidth: 1048
Flags: HW
LayerCount: 2
Fore
SplineSet
0 1024 m 1
 512 1024 l 1
 512 512 l 1
 0 512 l 1
 0 1024 l 1
512 512 m 1
 1024 512 l 1
 1024 0 l 1
 512 0 l 1
 512 512 l 1
EndSplineSet
EndChar

StartChar: uni0007
Encoding: 7 7 101
Width: 1024
VWidth: 1048
Flags: HW
LayerCount: 2
Fore
SplineSet
0 1024 m 1
 1024 1024 l 1
 1024 682.666666667 1024 341.333333333 1024 0 c 1
 512 0 l 1
 512 512 l 1
 0 512 l 1
 0 1024 l 1
EndSplineSet
EndChar

StartChar: uni0009
Encoding: 9 9 102
Width: 1024
VWidth: 1048
Flags: HW
LayerCount: 2
Fore
SplineSet
512 1024 m 1
 1024 1024 l 1
 1024 512 l 1
 512 512 l 1
 512 1024 l 1
EndSplineSet
EndChar

StartChar: uni000A
Encoding: 10 10 103
Width: 1024
VWidth: 1048
Flags: HW
LayerCount: 2
Fore
SplineSet
0 1024 m 1
 512 1024 l 1
 512 512 l 1
 0 512 l 1
 0 1024 l 1
EndSplineSet
EndChar

StartChar: uni000B
Encoding: 11 11 104
Width: 1024
VWidth: 1048
Flags: HW
LayerCount: 2
Fore
SplineSet
0 1024 m 1
 1024 1024 l 1
 1024 512 l 1
 0 512 l 1
 0 1024 l 1
EndSplineSet
EndChar

StartChar: uni000C
Encoding: 12 12 105
Width: 1024
VWidth: 1048
Flags: HW
LayerCount: 2
Fore
SplineSet
512 512 m 1
 1024 512 l 1
 1024 0 l 1
 512 0 l 1
 512 512 l 1
EndSplineSet
EndChar

StartChar: uni000D
Encoding: 13 13 106
Width: 1024
VWidth: 1048
Flags: HW
LayerCount: 2
Fore
SplineSet
512 1024 m 1
 1024 1024 l 1
 1024 0 l 1
 512 0 l 1
 512 1024 l 1
EndSplineSet
EndChar

StartChar: uni000E
Encoding: 14 14 107
Width: 1024
VWidth: 1048
Flags: HW
LayerCount: 2
Fore
SplineSet
0 1024 m 1
 512 1024 l 1
 512 512 l 1
 0 512 l 1
 0 1024 l 1
512 512 m 1
 1024 512 l 1
 1024 0 l 1
 512 0 l 1
 512 512 l 1
EndSplineSet
EndChar

StartChar: uni000F
Encoding: 15 15 108
Width: 1024
VWidth: 1048
Flags: HW
LayerCount: 2
Fore
SplineSet
0 1024 m 1
 1024 1024 l 1
 1024 682.666666667 1024 341.333333333 1024 0 c 1
 512 0 l 1
 512 512 l 1
 0 512 l 1
 0 1024 l 1
EndSplineSet
EndChar

StartChar: uni0011
Encoding: 17 17 109
Width: 1024
VWidth: 1048
Flags: HW
LayerCount: 2
Fore
SplineSet
512 1024 m 1
 1024 1024 l 1
 1024 512 l 1
 512 512 l 1
 512 1024 l 1
EndSplineSet
EndChar

StartChar: uni0012
Encoding: 18 18 110
Width: 1024
VWidth: 1048
Flags: HW
LayerCount: 2
Fore
SplineSet
0 1024 m 1
 512 1024 l 1
 512 512 l 1
 0 512 l 1
 0 1024 l 1
EndSplineSet
EndChar

StartChar: uni0013
Encoding: 19 19 111
Width: 1024
VWidth: 1048
Flags: HW
LayerCount: 2
Fore
SplineSet
0 1024 m 1
 1024 1024 l 1
 1024 512 l 1
 0 512 l 1
 0 1024 l 1
EndSplineSet
EndChar

StartChar: uni0014
Encoding: 20 20 112
Width: 1024
VWidth: 1048
Flags: HW
LayerCount: 2
Fore
SplineSet
512 512 m 1
 1024 512 l 1
 1024 0 l 1
 512 0 l 1
 512 512 l 1
EndSplineSet
EndChar

StartChar: uni0015
Encoding: 21 21 113
Width: 1024
VWidth: 1048
Flags: HW
LayerCount: 2
Fore
SplineSet
512 1024 m 1
 1024 1024 l 1
 1024 0 l 1
 512 0 l 1
 512 1024 l 1
EndSplineSet
EndChar

StartChar: uni0016
Encoding: 22 22 114
Width: 1024
VWidth: 1048
Flags: HW
LayerCount: 2
Fore
SplineSet
0 1024 m 1
 512 1024 l 1
 512 512 l 1
 0 512 l 1
 0 1024 l 1
512 512 m 1
 1024 512 l 1
 1024 0 l 1
 512 0 l 1
 512 512 l 1
EndSplineSet
EndChar

StartChar: uni0017
Encoding: 23 23 115
Width: 1024
VWidth: 1048
Flags: HW
LayerCount: 2
Fore
SplineSet
0 1024 m 1
 1024 1024 l 1
 1024 682.666666667 1024 341.333333333 1024 0 c 1
 512 0 l 1
 512 512 l 1
 0 512 l 1
 0 1024 l 1
EndSplineSet
EndChar

StartChar: uni0019
Encoding: 25 25 116
Width: 1024
VWidth: 1048
Flags: HW
LayerCount: 2
Fore
SplineSet
512 1024 m 1
 1024 1024 l 1
 1024 512 l 1
 512 512 l 1
 512 1024 l 1
EndSplineSet
EndChar

StartChar: uni001A
Encoding: 26 26 117
Width: 1024
VWidth: 1048
Flags: HW
LayerCount: 2
Fore
SplineSet
0 1024 m 1
 512 1024 l 1
 512 512 l 1
 0 512 l 1
 0 1024 l 1
EndSplineSet
EndChar

StartChar: uni001B
Encoding: 27 27 118
Width: 1024
VWidth: 1048
Flags: HW
LayerCount: 2
Fore
SplineSet
0 1024 m 1
 1024 1024 l 1
 1024 512 l 1
 0 512 l 1
 0 1024 l 1
EndSplineSet
EndChar

StartChar: uni001C
Encoding: 28 28 119
Width: 1024
VWidth: 1048
Flags: HW
LayerCount: 2
Fore
SplineSet
512 512 m 1
 1024 512 l 1
 1024 0 l 1
 512 0 l 1
 512 512 l 1
EndSplineSet
EndChar

StartChar: uni001D
Encoding: 29 29 120
Width: 1024
VWidth: 1048
Flags: HW
LayerCount: 2
Fore
SplineSet
512 1024 m 1
 1024 1024 l 1
 1024 0 l 1
 512 0 l 1
 512 1024 l 1
EndSplineSet
EndChar

StartChar: uni001E
Encoding: 30 30 121
Width: 1024
VWidth: 1048
Flags: HW
LayerCount: 2
Fore
SplineSet
0 1024 m 1
 512 1024 l 1
 512 512 l 1
 0 512 l 1
 0 1024 l 1
512 512 m 1
 1024 512 l 1
 1024 0 l 1
 512 0 l 1
 512 512 l 1
EndSplineSet
EndChar

StartChar: uni001F
Encoding: 31 31 122
Width: 1024
VWidth: 1048
Flags: HW
LayerCount: 2
Fore
SplineSet
0 1024 m 1
 1024 1024 l 1
 1024 682.666666667 1024 341.333333333 1024 0 c 1
 512 0 l 1
 512 512 l 1
 0 512 l 1
 0 1024 l 1
EndSplineSet
EndChar

StartChar: uni0080
Encoding: 128 128 123
Width: 1024
VWidth: 1048
Flags: HW
LayerCount: 2
Fore
SplineSet
0 1024 m 1
 1024 1024 l 1
 1024 0 l 1
 0 0 l 1
 0 1024 l 1
EndSplineSet
EndChar

StartChar: uni0088
Encoding: 136 136 124
Width: 1024
VWidth: 1048
Flags: HW
LayerCount: 2
Fore
SplineSet
0 1024 m 1
 1024 1024 l 1
 1024 0 l 1
 0 0 l 1
 0 1024 l 1
EndSplineSet
EndChar

StartChar: uni0090
Encoding: 144 144 125
Width: 1024
VWidth: 1048
Flags: HW
LayerCount: 2
Fore
SplineSet
0 1024 m 1
 1024 1024 l 1
 1024 0 l 1
 0 0 l 1
 0 1024 l 1
EndSplineSet
EndChar

StartChar: uni0098
Encoding: 152 152 126
Width: 1024
VWidth: 1048
Flags: HW
LayerCount: 2
Fore
SplineSet
0 1024 m 1
 1024 1024 l 1
 1024 0 l 1
 0 0 l 1
 0 1024 l 1
EndSplineSet
EndChar

StartChar: uni0081
Encoding: 129 129 127
Width: 1024
VWidth: 1048
Flags: HW
LayerCount: 2
Fore
SplineSet
0 1024 m 1
 512 1024 l 1
 512 512 l 1
 1024 512 l 1
 1024 0 l 1
 0 0 l 1
 -0 341.333333333 0 682.666666667 0 1024 c 1
EndSplineSet
EndChar

StartChar: uni0089
Encoding: 137 137 128
Width: 1024
VWidth: 1048
Flags: HW
LayerCount: 2
Fore
SplineSet
0 1024 m 1
 512 1024 l 1
 512 512 l 1
 1024 512 l 1
 1024 0 l 1
 0 0 l 1
 -0 341.333333333 0 682.666666667 0 1024 c 1
EndSplineSet
EndChar

StartChar: uni0091
Encoding: 145 145 129
Width: 1024
VWidth: 1048
Flags: HW
LayerCount: 2
Fore
SplineSet
0 1024 m 1
 512 1024 l 1
 512 512 l 1
 1024 512 l 1
 1024 0 l 1
 0 0 l 1
 -0 341.333333333 0 682.666666667 0 1024 c 1
EndSplineSet
EndChar

StartChar: uni0099
Encoding: 153 153 130
Width: 1024
VWidth: 1048
Flags: HW
LayerCount: 2
Fore
SplineSet
0 1024 m 1
 512 1024 l 1
 512 512 l 1
 1024 512 l 1
 1024 0 l 1
 0 0 l 1
 -0 341.333333333 0 682.666666667 0 1024 c 1
EndSplineSet
EndChar

StartChar: uni0082
Encoding: 130 130 131
Width: 1024
VWidth: 1048
Flags: HW
LayerCount: 2
Fore
SplineSet
512 1024 m 1
 1024 1024 l 1
 1024 682.666666667 1024 341.333333333 1024 0 c 1
 0 0 l 1
 0 512 l 1
 512 512 l 1
 512 1024 l 1
EndSplineSet
EndChar

StartChar: uni008A
Encoding: 138 138 132
Width: 1024
VWidth: 1048
Flags: HW
LayerCount: 2
Fore
SplineSet
512 1024 m 1
 1024 1024 l 1
 1024 682.666666667 1024 341.333333333 1024 0 c 1
 0 0 l 1
 0 512 l 1
 512 512 l 1
 512 1024 l 1
EndSplineSet
EndChar

StartChar: uni0092
Encoding: 146 146 133
Width: 1024
VWidth: 1048
Flags: HW
LayerCount: 2
Fore
SplineSet
512 1024 m 1
 1024 1024 l 1
 1024 682.666666667 1024 341.333333333 1024 0 c 1
 0 0 l 1
 0 512 l 1
 512 512 l 1
 512 1024 l 1
EndSplineSet
EndChar

StartChar: uni009A
Encoding: 154 154 134
Width: 1024
VWidth: 1048
Flags: HW
LayerCount: 2
Fore
SplineSet
512 1024 m 1
 1024 1024 l 1
 1024 682.666666667 1024 341.333333333 1024 0 c 1
 0 0 l 1
 0 512 l 1
 512 512 l 1
 512 1024 l 1
EndSplineSet
EndChar

StartChar: uni0083
Encoding: 131 131 135
Width: 1024
VWidth: 1048
Flags: HW
LayerCount: 2
Fore
SplineSet
0 512 m 1
 1024 512 l 1
 1024 0 l 1
 0 0 l 1
 0 512 l 1
EndSplineSet
EndChar

StartChar: uni008B
Encoding: 139 139 136
Width: 1024
VWidth: 1048
Flags: HW
LayerCount: 2
Fore
SplineSet
0 512 m 1
 1024 512 l 1
 1024 0 l 1
 0 0 l 1
 0 512 l 1
EndSplineSet
EndChar

StartChar: uni0093
Encoding: 147 147 137
Width: 1024
VWidth: 1048
Flags: HW
LayerCount: 2
Fore
SplineSet
0 512 m 1
 1024 512 l 1
 1024 0 l 1
 0 0 l 1
 0 512 l 1
EndSplineSet
EndChar

StartChar: uni009B
Encoding: 155 155 138
Width: 1024
VWidth: 1048
Flags: HW
LayerCount: 2
Fore
SplineSet
0 512 m 1
 1024 512 l 1
 1024 0 l 1
 0 0 l 1
 0 512 l 1
EndSplineSet
EndChar

StartChar: uni0084
Encoding: 132 132 139
Width: 1024
VWidth: 1048
Flags: HW
LayerCount: 2
Fore
SplineSet
0 1024 m 1
 341.333333333 1024 682.666666667 1024 1024 1024 c 1
 1024 512 l 1
 512 512 l 1
 512 0 l 1
 0 0 l 1
 0 1024 l 1
EndSplineSet
EndChar

StartChar: uni008C
Encoding: 140 140 140
Width: 1024
VWidth: 1048
Flags: HW
LayerCount: 2
Fore
SplineSet
0 1024 m 1
 341.333333333 1024 682.666666667 1024 1024 1024 c 1
 1024 512 l 1
 512 512 l 1
 512 0 l 1
 0 0 l 1
 0 1024 l 1
EndSplineSet
EndChar

StartChar: uni0094
Encoding: 148 148 141
Width: 1024
VWidth: 1048
Flags: HW
LayerCount: 2
Fore
SplineSet
0 1024 m 1
 341.333333333 1024 682.666666667 1024 1024 1024 c 1
 1024 512 l 1
 512 512 l 1
 512 0 l 1
 0 0 l 1
 0 1024 l 1
EndSplineSet
EndChar

StartChar: uni009C
Encoding: 156 156 142
Width: 1024
VWidth: 1048
Flags: HW
LayerCount: 2
Fore
SplineSet
0 1024 m 1
 341.333333333 1024 682.666666667 1024 1024 1024 c 1
 1024 512 l 1
 512 512 l 1
 512 0 l 1
 0 0 l 1
 0 1024 l 1
EndSplineSet
EndChar

StartChar: uni0085
Encoding: 133 133 143
Width: 1024
VWidth: 1048
Flags: HW
LayerCount: 2
Fore
SplineSet
0 1024 m 1
 512 1024 l 1
 512 0 l 1
 0 0 l 1
 0 1024 l 1
EndSplineSet
EndChar

StartChar: uni008D
Encoding: 141 141 144
Width: 1024
VWidth: 1048
Flags: HW
LayerCount: 2
Fore
SplineSet
0 1024 m 1
 512 1024 l 1
 512 0 l 1
 0 0 l 1
 0 1024 l 1
EndSplineSet
EndChar

StartChar: uni0095
Encoding: 149 149 145
Width: 1024
VWidth: 1048
Flags: HW
LayerCount: 2
Fore
SplineSet
0 1024 m 1
 512 1024 l 1
 512 0 l 1
 0 0 l 1
 0 1024 l 1
EndSplineSet
EndChar

StartChar: uni009D
Encoding: 157 157 146
Width: 1024
VWidth: 1048
Flags: HW
LayerCount: 2
Fore
SplineSet
0 1024 m 1
 512 1024 l 1
 512 0 l 1
 0 0 l 1
 0 1024 l 1
EndSplineSet
EndChar

StartChar: uni0086
Encoding: 134 134 147
Width: 1024
VWidth: 1048
Flags: HW
LayerCount: 2
Fore
SplineSet
512 512 m 1
 0 512 l 1
 0 0 l 1
 512 0 l 1
 512 512 l 1
512 512 m 1
 1024 512 l 1
 1024 1024 l 1
 512 1024 l 1
 512 512 l 1
EndSplineSet
EndChar

StartChar: uni008E
Encoding: 142 142 148
Width: 1024
VWidth: 1048
Flags: HW
LayerCount: 2
Fore
SplineSet
512 512 m 1
 0 512 l 1
 0 0 l 1
 512 0 l 1
 512 512 l 1
512 512 m 1
 1024 512 l 1
 1024 1024 l 1
 512 1024 l 1
 512 512 l 1
EndSplineSet
EndChar

StartChar: uni0096
Encoding: 150 150 149
Width: 1024
VWidth: 1048
Flags: HW
LayerCount: 2
Fore
SplineSet
512 512 m 1
 0 512 l 1
 0 0 l 1
 512 0 l 1
 512 512 l 1
512 512 m 1
 1024 512 l 1
 1024 1024 l 1
 512 1024 l 1
 512 512 l 1
EndSplineSet
EndChar

StartChar: uni009E
Encoding: 158 158 150
Width: 1024
VWidth: 1048
Flags: HW
LayerCount: 2
Fore
SplineSet
512 512 m 1
 0 512 l 1
 0 0 l 1
 512 0 l 1
 512 512 l 1
512 512 m 1
 1024 512 l 1
 1024 1024 l 1
 512 1024 l 1
 512 512 l 1
EndSplineSet
EndChar

StartChar: uni0087
Encoding: 135 135 151
Width: 1024
VWidth: 1048
Flags: HW
LayerCount: 2
Fore
SplineSet
0 512 m 1
 512 512 l 1
 512 0 l 1
 0 0 l 1
 0 512 l 1
EndSplineSet
EndChar

StartChar: uni008F
Encoding: 143 143 152
Width: 1024
VWidth: 1048
Flags: HW
LayerCount: 2
Fore
SplineSet
0 512 m 1
 512 512 l 1
 512 0 l 1
 0 0 l 1
 0 512 l 1
EndSplineSet
EndChar

StartChar: uni0097
Encoding: 151 151 153
Width: 1024
VWidth: 1048
Flags: HW
LayerCount: 2
Fore
SplineSet
0 512 m 1
 512 512 l 1
 512 0 l 1
 0 0 l 1
 0 512 l 1
EndSplineSet
EndChar

StartChar: uni009F
Encoding: 159 159 154
Width: 1024
VWidth: 1048
Flags: HW
LayerCount: 2
Fore
SplineSet
0 512 m 1
 512 512 l 1
 512 0 l 1
 0 0 l 1
 0 512 l 1
EndSplineSet
EndChar

StartChar: uni00A0
Encoding: 160 160 155
Width: 1024
VWidth: 1048
Flags: HW
LayerCount: 2
Fore
SplineSet
0 1024 m 1
 1024 1024 l 1
 1024 0 l 1
 0 0 l 1
 0 1024 l 1
EndSplineSet
EndChar

StartChar: exclamdown
Encoding: 161 161 156
Width: 1024
VWidth: 1048
Flags: HW
LayerCount: 2
Fore
SplineSet
384 256 m 1
 384 128 l 1
 512 128 l 1
 512 256 l 1
 384 256 l 1
384 896 m 1
 384 384 l 1
 512 384 l 1
 512 896 l 1
 384 896 l 1
0 1024 m 1
 1024 1024 l 1
 1024 0 l 1
 0 0 l 1
 0 1024 l 1
EndSplineSet
EndChar

StartChar: cent
Encoding: 162 162 157
Width: 1024
VWidth: 1048
Flags: HW
LayerCount: 2
Fore
SplineSet
640 896 m 1
 640 640 l 1
 768 640 l 1
 768 896 l 1
 640 896 l 1
256 896 m 1
 256 640 l 1
 384 640 l 1
 384 896 l 1
 256 896 l 1
0 0 m 1
 0 1024 l 1
 1024 1024 l 1
 1024 0 l 1
 0 0 l 1
EndSplineSet
EndChar

StartChar: sterling
Encoding: 163 163 158
Width: 1024
VWidth: 1048
Flags: HW
LayerCount: 2
Fore
SplineSet
384 640 m 1
 640 640 l 1
 640 384 l 1
 384 384 l 1
 384 640 l 1
256 896 m 1
 256 768 l 1
 128 768 l 1
 128 640 l 1
 256 640 l 1
 256 384 l 1
 128 384 l 1
 128 256 l 1
 256 256 l 1
 256 128 l 1
 384 128 l 1
 384 256 l 1
 640 256 l 1
 640 128 l 1
 768 128 l 1
 768 256 l 1
 896 256 l 1
 896 384 l 1
 768 384 l 1
 768 640 l 1
 896 640 l 1
 896 768 l 1
 768 768 l 1
 768 896 l 1
 640 896 l 1
 640 768 l 1
 384 768 l 1
 384 896 l 1
 256 896 l 1
0 1024 m 1
 1024 1024 l 1
 1024 0 l 1
 0 0 l 1
 0 1024 l 1
EndSplineSet
EndChar

StartChar: currency
Encoding: 164 164 159
Width: 1024
VWidth: 1048
Flags: HW
LayerCount: 2
Fore
SplineSet
640 384 m 1
 768 384 l 1
 768 256 l 1
 640 256 l 1
 640 384 l 1
384 640 m 1
 512 640 l 1
 512 512 l 1
 384 512 l 1
 384 640 l 1
512 896 m 1
 512 768 l 1
 256 768 l 1
 256 384 l 1
 512 384 l 1
 512 256 l 1
 256 256 l 1
 256 128 l 1
 512 128 l 1
 512 0 l 1
 0 0 l 1
 0 1024 l 1
 1024 1024 l 1
 1024 0 l 1
 640 0 l 1
 640 128 l 1
 896 128 l 1
 896 512 l 1
 640 512 l 1
 640 640 l 1
 896 640 l 1
 896 768 l 1
 640 768 l 1
 640 896 l 1
 512 896 l 1
EndSplineSet
EndChar

StartChar: yen
Encoding: 165 165 160
Width: 1024
VWidth: 1048
Flags: HW
LayerCount: 2
Fore
SplineSet
640 384 m 1
 640 128 l 1
 896 128 l 1
 896 384 l 1
 640 384 l 1
128 896 m 1
 128 640 l 1
 384 640 l 1
 384 896 l 1
 128 896 l 1
0 1024 m 1
 1024 1024 l 1
 1024 0 l 1
 0 0 l 1
 0 1024 l 1
256 256 m 1
 128 256 l 1
 128 128 l 1
 256 128 l 1
 256 256 l 1
256 256 m 1
 384 256 l 1
 384 384 l 1
 256 384 l 1
 256 256 l 1
384 384 m 1
 512 384 l 1
 512 512 l 1
 384 512 l 1
 384 384 l 1
512 512 m 1
 640 512 l 1
 640 640 l 1
 512 640 l 1
 512 512 l 1
640 640 m 1
 768 640 l 1
 768 768 l 1
 640 768 l 1
 640 640 l 1
768 768 m 1
 896 768 l 1
 896 896 l 1
 768 896 l 1
 768 768 l 1
EndSplineSet
EndChar

StartChar: glyph
Encoding: 256 -1 161
Width: 1048
VWidth: 1048
Flags: HW
LayerCount: 2
Fore
SplineSet
0 1049 m 1
 1049 1049 l 1
 1049 0 l 1
 0 0 l 1
 0 1049 l 1
EndSplineSet
EndChar

StartChar: glyph
Encoding: 257 -1 162
Width: 1048
VWidth: 1048
Flags: HW
LayerCount: 2
Fore
SplineSet
0 1049 m 1
 1049 1049 l 1
 1049 0 l 1
 0 0 l 1
 0 1049 l 1
EndSplineSet
EndChar

StartChar: glyph
Encoding: 258 -1 163
Width: 1048
VWidth: 1048
Flags: HW
LayerCount: 2
Fore
SplineSet
0 1049 m 1
 1049 1049 l 1
 1049 0 l 1
 0 0 l 1
 0 1049 l 1
EndSplineSet
EndChar

StartChar: glyph
Encoding: 259 -1 164
Width: 1048
VWidth: 1048
Flags: HW
LayerCount: 2
Fore
SplineSet
0 1049 m 1
 1049 1049 l 1
 1049 0 l 1
 0 0 l 1
 0 1049 l 1
EndSplineSet
EndChar

StartChar: glyph
Encoding: 260 -1 165
Width: 1048
VWidth: 1048
Flags: HW
LayerCount: 2
Fore
SplineSet
0 1049 m 1
 1049 1049 l 1
 1049 0 l 1
 0 0 l 1
 0 1049 l 1
EndSplineSet
EndChar

StartChar: glyph
Encoding: 261 -1 166
Width: 1048
VWidth: 1048
Flags: HW
LayerCount: 2
Fore
SplineSet
0 1049 m 1
 1049 1049 l 1
 1049 0 l 1
 0 0 l 1
 0 1049 l 1
EndSplineSet
EndChar

StartChar: glyph
Encoding: 262 -1 167
Width: 1048
VWidth: 1048
Flags: HW
LayerCount: 2
Fore
SplineSet
0 1049 m 1
 1049 1049 l 1
 1049 0 l 1
 0 0 l 1
 0 1049 l 1
EndSplineSet
EndChar

StartChar: glyph
Encoding: 263 -1 168
Width: 1048
VWidth: 1048
Flags: HW
LayerCount: 2
Fore
SplineSet
0 1049 m 1
 1049 1049 l 1
 1049 0 l 1
 0 0 l 1
 0 1049 l 1
EndSplineSet
EndChar

StartChar: glyph
Encoding: 264 -1 169
Width: 1048
VWidth: 1048
Flags: HW
LayerCount: 2
Fore
SplineSet
0 1049 m 1
 1049 1049 l 1
 1049 0 l 1
 0 0 l 1
 0 1049 l 1
EndSplineSet
EndChar

StartChar: glyph
Encoding: 265 -1 170
Width: 1048
VWidth: 1048
Flags: HW
LayerCount: 2
Fore
SplineSet
0 1049 m 1
 1049 1049 l 1
 1049 0 l 1
 0 0 l 1
 0 1049 l 1
EndSplineSet
EndChar

StartChar: NameMe.176
Encoding: 266 -1 171
Width: 1048
VWidth: 1048
Flags: HW
LayerCount: 2
Fore
SplineSet
0 1049 m 1
 1049 1049 l 1
 1049 0 l 1
 0 0 l 1
 0 1049 l 1
EndSplineSet
EndChar

StartChar: NameMe.177
Encoding: 267 -1 172
Width: 1048
VWidth: 1048
Flags: HW
LayerCount: 2
Fore
SplineSet
0 1049 m 1
 1049 1049 l 1
 1049 0 l 1
 0 0 l 1
 0 1049 l 1
EndSplineSet
EndChar

StartChar: NameMe.178
Encoding: 268 -1 173
Width: 1048
VWidth: 1048
Flags: HW
LayerCount: 2
Fore
SplineSet
0 1049 m 1
 1049 1049 l 1
 1049 0 l 1
 0 0 l 1
 0 1049 l 1
EndSplineSet
EndChar

StartChar: NameMe.179
Encoding: 269 -1 174
Width: 1048
VWidth: 1048
Flags: HW
LayerCount: 2
Fore
SplineSet
0 1049 m 1
 1049 1049 l 1
 1049 0 l 1
 0 0 l 1
 0 1049 l 1
EndSplineSet
EndChar

StartChar: NameMe.180
Encoding: 270 -1 175
Width: 1048
VWidth: 1048
Flags: HW
LayerCount: 2
Fore
SplineSet
0 1049 m 1
 1049 1049 l 1
 1049 0 l 1
 0 0 l 1
 0 1049 l 1
EndSplineSet
EndChar

StartChar: NameMe.181
Encoding: 271 -1 176
Width: 1048
VWidth: 1048
Flags: HW
LayerCount: 2
Fore
SplineSet
0 1049 m 1
 1049 1049 l 1
 1049 0 l 1
 0 0 l 1
 0 1049 l 1
EndSplineSet
EndChar

StartChar: NameMe.182
Encoding: 272 -1 177
Width: 1048
VWidth: 1048
Flags: HW
LayerCount: 2
Fore
SplineSet
0 1049 m 1
 1049 1049 l 1
 1049 0 l 1
 0 0 l 1
 0 1049 l 1
EndSplineSet
EndChar

StartChar: NameMe.183
Encoding: 273 -1 178
Width: 1048
VWidth: 1048
Flags: HW
LayerCount: 2
Fore
SplineSet
0 1049 m 1
 1049 1049 l 1
 1049 0 l 1
 0 0 l 1
 0 1049 l 1
EndSplineSet
EndChar

StartChar: NameMe.184
Encoding: 274 -1 179
Width: 1048
VWidth: 1048
Flags: HW
LayerCount: 2
Fore
SplineSet
0 1049 m 1
 1049 1049 l 1
 1049 0 l 1
 0 0 l 1
 0 1049 l 1
EndSplineSet
EndChar

StartChar: NameMe.185
Encoding: 275 -1 180
Width: 1048
VWidth: 1048
Flags: HW
LayerCount: 2
Fore
SplineSet
0 1049 m 1
 1049 1049 l 1
 1049 0 l 1
 0 0 l 1
 0 1049 l 1
EndSplineSet
EndChar

StartChar: brokenbar
Encoding: 166 166 181
Width: 1024
VWidth: 1048
Flags: HW
LayerCount: 2
Fore
SplineSet
0 1024 m 1
 1024 1024 l 1
 1024 0 l 1
 0 0 l 1
 0 1024 l 1
256 384 m 1
 384 384 l 1
 384 512 l 1
 256 512 l 1
 256 384 l 1
256 384 m 1
 128 384 l 1
 128 256 l 1
 256 256 l 1
 256 384 l 1
256 256 m 1
 256 128 l 1
 640 128 l 1
 640 256 l 1
 256 256 l 1
768 384 m 1
 896 384 l 1
 896 512 l 1
 768 512 l 1
 768 384 l 1
768 384 m 1
 640 384 l 1
 640 256 l 1
 768 256 l 1
 768 128 l 1
 896 128 l 1
 896 256 l 1
 768 256 l 1
 768 384 l 1
640 384 m 1
 640 512 l 1
 512 512 l 1
 512 384 l 1
 640 384 l 1
512 512 m 1
 512 640 l 1
 384 640 l 1
 384 768 l 1
 256 768 l 1
 256 640 l 1
 384 640 l 1
 384 512 l 1
 512 512 l 1
512 640 m 1
 640 640 l 1
 640 768 l 1
 512 768 l 1
 512 640 l 1
512 768 m 1
 512 896 l 1
 384 896 l 1
 384 768 l 1
 512 768 l 1
EndSplineSet
EndChar

StartChar: section
Encoding: 167 167 182
Width: 1024
VWidth: 1048
Flags: HW
LayerCount: 2
Fore
SplineSet
0 1024 m 1
 1024 1024 l 1
 1024 0 l 1
 0 0 l 1
 0 1024 l 1
512 768 m 1
 384 768 l 1
 384 640 l 1
 512 640 l 1
 512 768 l 1
512 768 m 1
 640 768 l 1
 640 896 l 1
 512 896 l 1
 512 768 l 1
EndSplineSet
EndChar

StartChar: dieresis
Encoding: 168 168 183
Width: 1024
VWidth: 1048
Flags: HW
LayerCount: 2
Fore
SplineSet
0 1024 m 1
 1024 1024 l 1
 1024 0 l 1
 0 0 l 1
 0 1024 l 1
640 256 m 1
 640 128 l 1
 768 128 l 1
 768 256 l 1
 640 256 l 1
640 256 m 1
 640 768 l 1
 512 768 l 1
 512 256 l 1
 640 256 l 1
640 768 m 1
 768 768 l 1
 768 896 l 1
 640 896 l 1
 640 768 l 1
EndSplineSet
EndChar

StartChar: copyright
Encoding: 169 169 184
Width: 1024
VWidth: 1048
Flags: HW
LayerCount: 2
Fore
SplineSet
256 896 m 1
 256 768 l 1
 384 768 l 1
 384 256 l 1
 256 256 l 1
 256 128 l 1
 384 128 l 1
 384 256 l 1
 512 256 l 1
 512 768 l 1
 384 768 l 1
 384 896 l 1
 256 896 l 1
0 1024 m 1
 1024 1024 l 1
 1024 0 l 1
 0 0 l 1
 0 1024 l 1
EndSplineSet
EndChar

StartChar: ordfeminine
Encoding: 170 170 185
Width: 1024
VWidth: 1048
Flags: HW
LayerCount: 2
Fore
SplineSet
384 768 m 1
 384 640 l 1
 512 640 l 1
 512 512 l 1
 256 512 l 1
 256 384 l 1
 512 384 l 1
 512 256 l 1
 384 256 l 1
 384 128 l 1
 512 128 l 1
 512 256 l 1
 640 256 l 1
 640 128 l 1
 768 128 l 1
 768 256 l 1
 640 256 l 1
 640 384 l 1
 896 384 l 1
 896 512 l 1
 640 512 l 1
 640 640 l 1
 768 640 l 1
 768 768 l 1
 640 768 l 1
 640 640 l 1
 512 640 l 1
 512 768 l 1
 384 768 l 1
0 1024 m 1
 1024 1024 l 1
 1024 0 l 1
 0 0 l 1
 0 1024 l 1
EndSplineSet
EndChar

StartChar: guillemotleft
Encoding: 171 171 186
Width: 1024
VWidth: 1048
Flags: HW
LayerCount: 2
Fore
SplineSet
512 768 m 1
 512 512 l 1
 256 512 l 1
 256 384 l 1
 512 384 l 1
 512 128 l 1
 640 128 l 1
 640 384 l 1
 896 384 l 1
 896 512 l 1
 640 512 l 1
 640 768 l 1
 512 768 l 1
0 1024 m 1
 1024 1024 l 1
 1024 0 l 1
 0 0 l 1
 0 1024 l 1
EndSplineSet
EndChar

StartChar: logicalnot
Encoding: 172 172 187
Width: 1024
VWidth: 1048
Flags: HW
LayerCount: 2
Fore
SplineSet
0 1024 m 1
 1024 1024 l 1
 1024 0 l 1
 512 0 l 1
 512 128 l 1
 384 128 l 1
 384 0 l 1
 0 0 l 1
 0 1024 l 1
512 128 m 1
 640 128 l 1
 640 384 l 1
 512 384 l 1
 512 128 l 1
EndSplineSet
EndChar

StartChar: uni00AD
Encoding: 173 173 188
Width: 1024
VWidth: 1048
Flags: HW
LayerCount: 2
Fore
SplineSet
256 512 m 1
 256 384 l 1
 896 384 l 1
 896 512 l 1
 256 512 l 1
0 1024 m 1
 1024 1024 l 1
 1024 0 l 1
 0 0 l 1
 0 1024 l 1
EndSplineSet
EndChar

StartChar: registered
Encoding: 174 174 189
Width: 1024
VWidth: 1048
Flags: HW
LayerCount: 2
Fore
SplineSet
384 384 m 1
 384 128 l 1
 640 128 l 1
 640 384 l 1
 384 384 l 1
0 1024 m 1
 1024 1024 l 1
 1024 0 l 1
 0 0 l 1
 0 1024 l 1
EndSplineSet
EndChar

StartChar: macron
Encoding: 175 175 190
Width: 1024
VWidth: 1048
Flags: HW
LayerCount: 2
Fore
SplineSet
0 1024 m 1
 1024 1024 l 1
 1024 0 l 1
 0 0 l 1
 0 1024 l 1
384 256 m 1
 256 256 l 1
 256 128 l 1
 384 128 l 1
 384 256 l 1
384 256 m 1
 512 256 l 1
 512 384 l 1
 384 384 l 1
 384 256 l 1
512 384 m 1
 640 384 l 1
 640 512 l 1
 512 512 l 1
 512 384 l 1
640 512 m 1
 768 512 l 1
 768 640 l 1
 640 640 l 1
 640 512 l 1
768 640 m 1
 896 640 l 1
 896 768 l 1
 768 768 l 1
 768 640 l 1
EndSplineSet
EndChar

StartChar: degree
Encoding: 176 176 191
Width: 1024
VWidth: 1048
Flags: HW
LayerCount: 2
Fore
SplineSet
0 1024 m 1
 1024 1024 l 1
 1024 0 l 1
 0 0 l 1
 0 1024 l 1
512 512 m 1
 640 512 l 1
 640 640 l 1
 512 640 l 1
 512 512 l 1
512 512 m 1
 384 512 l 1
 384 384 l 1
 512 384 l 1
 512 512 l 1
384 384 m 1
 256 384 l 1
 256 768 l 1
 128 768 l 1
 128 256 l 1
 256 256 l 1
 256 128 l 1
 768 128 l 1
 768 256 l 1
 384 256 l 1
 384 384 l 1
768 256 m 1
 896 256 l 1
 896 768 l 1
 768 768 l 1
 768 896 l 1
 256 896 l 1
 256 768 l 1
 640 768 l 1
 640 640 l 1
 768 640 l 1
 768 256 l 1
EndSplineSet
EndChar

StartChar: plusminus
Encoding: 177 177 192
Width: 1024
VWidth: 1048
Flags: HW
LayerCount: 2
Fore
SplineSet
0 1024 m 1
 1024 1024 l 1
 1024 0 l 1
 0 0 l 1
 0 1024 l 1
384 768 m 1
 256 768 l 1
 256 640 l 1
 384 640 l 1
 384 768 l 1
384 768 m 1
 512 768 l 1
 512 256 l 1
 256 256 l 1
 256 128 l 1
 896 128 l 1
 896 256 l 1
 640 256 l 1
 640 896 l 1
 554.666666667 896 469.333333333 896 384 896 c 1
 384 768 l 1
EndSplineSet
EndChar

StartChar: uni00B2
Encoding: 178 178 193
Width: 1024
VWidth: 1048
Flags: HW
LayerCount: 2
Fore
SplineSet
0 1024 m 1
 1024 1024 l 1
 1024 0 l 1
 0 0 l 1
 0 1024 l 1
256 384 m 1
 128 384 l 1
 128 298.666666667 128 213.333333333 128 128 c 1
 896 128 l 1
 896 256 l 1
 256 256 l 1
 256 384 l 1
256 384 m 1
 768 384 l 1
 768 512 l 1
 256 512 l 1
 256 384 l 1
768 512 m 1
 896 512 l 1
 896 768 l 1
 768 768 l 1
 768 512 l 1
768 768 m 1
 768 896 l 1
 256 896 l 1
 256 768 l 1
 128 768 l 1
 128 640 l 1
 256 640 l 1
 256 768 l 1
 768 768 l 1
EndSplineSet
EndChar

StartChar: uni00B3
Encoding: 179 179 194
Width: 1024
VWidth: 1048
Flags: HW
LayerCount: 2
Fore
SplineSet
0 1024 m 1
 1024 1024 l 1
 1024 0 l 1
 0 0 l 1
 0 1024 l 1
256 256 m 1
 256 384 l 1
 128 384 l 1
 128 256 l 1
 256 256 l 1
256 256 m 1
 256 128 l 1
 768 128 l 1
 768 256 l 1
 256 256 l 1
768 256 m 1
 896 256 l 1
 896 512 l 1
 768 512 l 1
 768 256 l 1
768 512 m 1
 768 640 l 1
 512 640 l 1
 512 512 l 1
 768 512 l 1
768 640 m 1
 896 640 l 1
 896 768 l 1
 768 768 l 1
 768 640 l 1
768 768 m 1
 768 896 l 1
 256 896 l 1
 256 768 l 1
 128 768 l 1
 128 640 l 1
 256 640 l 1
 256 768 l 1
 768 768 l 1
EndSplineSet
EndChar

StartChar: acute
Encoding: 180 180 195
Width: 1024
VWidth: 1048
Flags: HW
LayerCount: 2
Fore
SplineSet
512 896 m 1
 512 768 l 1
 384 768 l 1
 384 640 l 1
 256 640 l 1
 256 512 l 1
 384 512 l 1
 384 640 l 1
 512 640 l 1
 512 384 l 1
 256 384 l 1
 256 512 l 1
 128 512 l 1
 128 426.666666667 128 341.333333333 128 256 c 1
 512 256 l 1
 512 128 l 1
 640 128 l 1
 640 256 l 1
 896 256 l 1
 896 384 l 1
 640 384 l 1
 640 896 l 1
 512 896 l 1
0 1024 m 1
 1024 1024 l 1
 1024 0 l 1
 0 0 l 1
 0 1024 l 1
EndSplineSet
EndChar

StartChar: mu
Encoding: 181 181 196
Width: 1024
VWidth: 1048
Flags: HW
LayerCount: 2
Fore
SplineSet
128 896 m 1
 128 512 l 1
 768 512 l 1
 768 256 l 1
 256 256 l 1
 256 384 l 1
 128 384 l 1
 128 256 l 1
 256 256 l 1
 256 128 l 1
 768 128 l 1
 768 256 l 1
 896 256 l 1
 896 512 l 1
 768 512 l 1
 768 640 l 1
 256 640 l 1
 256 768 l 1
 896 768 l 1
 896 896 l 1
 128 896 l 1
0 1024 m 1
 1024 1024 l 1
 1024 0 l 1
 0 0 l 1
 0 1024 l 1
EndSplineSet
EndChar

StartChar: paragraph
Encoding: 182 182 197
Width: 1024
VWidth: 1048
Flags: HW
LayerCount: 2
Fore
SplineSet
0 1024 m 1
 1024 1024 l 1
 1024 0 l 1
 0 0 l 1
 0 1024 l 1
768 256 m 1
 256 256 l 1
 256 128 l 1
 768 128 l 1
 768 256 l 1
768 256 m 1
 896 256 l 1
 896 512 l 1
 768 512 l 1
 768 256 l 1
768 512 m 1
 768 640 l 1
 256 640 l 1
 256 768 l 1
 128 768 l 1
 128 256 l 1
 256 256 l 1
 256 512 l 1
 768 512 l 1
256 768 m 1
 768 768 l 1
 768 896 l 1
 256 896 l 1
 256 768 l 1
EndSplineSet
EndChar

StartChar: periodcentered
Encoding: 183 183 198
Width: 1024
VWidth: 1048
Flags: HW
LayerCount: 2
Fore
SplineSet
128 896 m 1
 128 768 l 1
 768 768 l 1
 768 640 l 1
 640 640 l 1
 640 512 l 1
 512 512 l 1
 512 384 l 1
 384 384 l 1
 384 128 l 1
 512 128 l 1
 512 384 l 1
 640 384 l 1
 640 512 l 1
 768 512 l 1
 768 640 l 1
 896 640 l 1
 896 725.333333333 896 810.666666667 896 896 c 1
 128 896 l 1
0 1024 m 1
 1024 1024 l 1
 1024 0 l 1
 0 0 l 1
 0 1024 l 1
EndSplineSet
EndChar

StartChar: cedilla
Encoding: 184 184 199
Width: 1024
VWidth: 1048
Flags: HW
LayerCount: 2
Fore
SplineSet
0 1024 m 1
 1024 1024 l 1
 1024 0 l 1
 0 0 l 1
 0 1024 l 1
256 256 m 1
 256 512 l 1
 128 512 l 1
 128 256 l 1
 256 256 l 1
256 256 m 1
 256 128 l 1
 768 128 l 1
 768 256 l 1
 256 256 l 1
768 256 m 1
 896 256 l 1
 896 512 l 1
 768 512 l 1
 768 256 l 1
768 512 m 1
 768 640 l 1
 256 640 l 1
 256 768 l 1
 128 768 l 1
 128 640 l 1
 256 640 l 1
 256 512 l 1
 768 512 l 1
768 640 m 1
 896 640 l 1
 896 768 l 1
 768 768 l 1
 768 640 l 1
768 768 m 1
 768 896 l 1
 256 896 l 1
 256 768 l 1
 768 768 l 1
EndSplineSet
EndChar

StartChar: uni00B9
Encoding: 185 185 200
Width: 1024
VWidth: 1048
Flags: HW
LayerCount: 2
Fore
SplineSet
0 1024 m 1
 1024 1024 l 1
 1024 0 l 1
 0 0 l 1
 0 1024 l 1
768 256 m 1
 256 256 l 1
 256 128 l 1
 768 128 l 1
 768 256 l 1
768 256 m 1
 896 256 l 1
 896 768 l 1
 768 768 l 1
 768 512 l 1
 256 512 l 1
 256 768 l 1
 128 768 l 1
 128 512 l 1
 256 512 l 1
 256 384 l 1
 768 384 l 1
 768 256 l 1
768 768 m 1
 768 896 l 1
 256 896 l 1
 256 768 l 1
 768 768 l 1
EndSplineSet
EndChar

StartChar: ordmasculine
Encoding: 186 186 201
Width: 1024
VWidth: 1048
Flags: HW
LayerCount: 2
Fore
SplineSet
384 256 m 1
 384 128 l 1
 512 128 l 1
 512 256 l 1
 384 256 l 1
384 640 m 1
 384 512 l 1
 512 512 l 1
 512 640 l 1
 384 640 l 1
0 1024 m 1
 1024 1024 l 1
 1024 0 l 1
 0 0 l 1
 0 1024 l 1
EndSplineSet
EndChar

StartChar: guillemotright
Encoding: 187 187 202
Width: 1024
VWidth: 1048
Flags: HW
LayerCount: 2
Fore
SplineSet
384 768 m 1
 384 640 l 1
 512 640 l 1
 512 768 l 1
 384 768 l 1
0 1024 m 1
 1024 1024 l 1
 1024 0 l 1
 384 0 l 1
 384 128 l 1
 256 128 l 1
 256 0 l 1
 0 0 l 1
 0 1024 l 1
384 128 m 1
 512 128 l 1
 512 384 l 1
 384 384 l 1
 384 128 l 1
EndSplineSet
EndChar

StartChar: onequarter
Encoding: 188 188 203
Width: 1024
VWidth: 1048
Flags: HW
LayerCount: 2
Fore
SplineSet
0 1024 m 1
 1024 1024 l 1
 1024 0 l 1
 0 0 l 1
 0 1024 l 1
640 256 m 1
 640 128 l 1
 768 128 l 1
 768 256 l 1
 640 256 l 1
640 256 m 1
 640 384 l 1
 512 384 l 1
 512 256 l 1
 640 256 l 1
512 384 m 1
 512 512 l 1
 384 512 l 1
 384 384 l 1
 512 384 l 1
512 512 m 1
 640 512 l 1
 640 640 l 1
 512 640 l 1
 512 512 l 1
640 640 m 1
 768 640 l 1
 768 768 l 1
 640 768 l 1
 640 640 l 1
EndSplineSet
EndChar

StartChar: onehalf
Encoding: 189 189 204
Width: 1024
VWidth: 1048
Flags: HW
LayerCount: 2
Fore
SplineSet
256 384 m 1
 256 256 l 1
 896 256 l 1
 896 384 l 1
 256 384 l 1
256 640 m 1
 256 512 l 1
 896 512 l 1
 896 640 l 1
 256 640 l 1
0 1024 m 1
 1024 1024 l 1
 1024 0 l 1
 0 0 l 1
 0 1024 l 1
EndSplineSet
EndChar

StartChar: threequarters
Encoding: 190 190 205
Width: 1024
VWidth: 1048
Flags: HW
LayerCount: 2
Fore
SplineSet
384 768 m 1
 384 640 l 1
 512 640 l 1
 512 512 l 1
 640 512 l 1
 640 384 l 1
 512 384 l 1
 512 256 l 1
 384 256 l 1
 384 128 l 1
 512 128 l 1
 512 256 l 1
 640 256 l 1
 640 384 l 1
 768 384 l 1
 768 512 l 1
 640 512 l 1
 640 640 l 1
 512 640 l 1
 512 768 l 1
 384 768 l 1
0 1024 m 1
 1024 1024 l 1
 1024 0 l 1
 0 0 l 1
 0 1024 l 1
EndSplineSet
EndChar

StartChar: questiondown
Encoding: 191 191 206
Width: 1024
VWidth: 1048
Flags: HW
LayerCount: 2
Fore
SplineSet
512 256 m 1
 512 128 l 1
 640 128 l 1
 640 256 l 1
 512 256 l 1
0 1024 m 1
 1024 1024 l 1
 1021 0 l 1
 0 0 l 1
 0 1024 l 1
640 512 m 1
 512 512 l 1
 512 384 l 1
 640 384 l 1
 640 512 l 1
640 512 m 1
 768 512 l 1
 768 640 l 1
 640 640 l 1
 640 512 l 1
768 640 m 1
 896 640 l 1
 896 768 l 1
 768 768 l 1
 768 640 l 1
768 768 m 1
 768 896 l 1
 256 896 l 1
 256 768 l 1
 128 768 l 1
 128 640 l 1
 256 640 l 1
 256 768 l 1
 768 768 l 1
EndSplineSet
EndChar

StartChar: Agrave
Encoding: 192 192 207
Width: 1024
VWidth: 1048
Flags: HW
LayerCount: 2
Fore
SplineSet
0 1024 m 1
 1024 1024 l 1
 1024 0 l 1
 0 0 l 1
 0 1024 l 1
256 256 m 1
 256 128 l 1
 768 128 l 1
 768 256 l 1
 256 256 l 1
256 256 m 1
 256 768 l 1
 128 768 l 1
 128 256 l 1
 256 256 l 1
768 768 m 1
 768 640 l 1
 640 640 l 1
 640 512 l 1
 512 512 l 1
 512 640 l 1
 384 640 l 1
 384 554.666666667 384 469.333333333 384 384 c 1
 554.666666667 384 725.333333333 384 896 384 c 1
 896 768 l 1
 768 768 l 1
768 768 m 1
 768 896 l 1
 256 896 l 1
 256 768 l 1
 512 768 l 1
 512 640 l 1
 640 640 l 1
 640 768 l 1
 768 768 l 1
EndSplineSet
EndChar

StartChar: Aacute
Encoding: 193 193 208
Width: 1024
VWidth: 1048
Flags: HW
LayerCount: 2
Fore
SplineSet
0 1024 m 1
 1024 1024 l 1
 1024 0 l 1
 0 0 l 1
 0 1024 l 1
768 768 m 1
 768 512 l 1
 256 512 l 1
 256 768 l 1
 128 768 l 1
 128 128 l 1
 256 128 l 1
 256 384 l 1
 768 384 l 1
 768 128 l 1
 896 128 l 1
 896 768 l 1
 768 768 l 1
768 768 m 1
 768 896 l 1
 256 896 l 1
 256 768 l 1
 768 768 l 1
EndSplineSet
EndChar

StartChar: Acircumflex
Encoding: 194 194 209
Width: 1024
VWidth: 1048
Flags: HW
LayerCount: 2
Fore
SplineSet
128 896 m 1
 128 128 l 1
 341.333333333 128 554.666666667 128 768 128 c 1
 768 256 l 1
 896 256 l 1
 896 512 l 1
 768 512 l 1
 768 256 l 1
 256 256 l 1
 256 512 l 1
 768 512 l 1
 768 640 l 1
 896 640 l 1
 896 768 l 1
 768 768 l 1
 768 640 l 1
 256 640 l 1
 256 768 l 1
 768 768 l 1
 768 896 l 1
 554.666666667 896 341.333333333 896 128 896 c 1
0 1024 m 1
 1024 1024 l 1
 1024 0 l 1
 0 0 l 1
 0 1024 l 1
EndSplineSet
EndChar

StartChar: Atilde
Encoding: 195 195 210
Width: 1024
VWidth: 1048
Flags: HW
LayerCount: 2
Fore
SplineSet
0 1024 m 1
 1024 1024 l 1
 1024 0 l 1
 0 0 l 1
 0 1024 l 1
768 256 m 1
 896 256 l 1
 896 384 l 1
 768 384 l 1
 768 256 l 1
768 256 m 1
 256 256 l 1
 256 128 l 1
 768 128 l 1
 768 256 l 1
256 256 m 1
 256 768 l 1
 128 768 l 1
 128 256 l 1
 256 256 l 1
768 768 m 1
 768 640 l 1
 896 640 l 1
 896 768 l 1
 768 768 l 1
768 768 m 1
 768 896 l 1
 256 896 l 1
 256 768 l 1
 768 768 l 1
EndSplineSet
EndChar

StartChar: Adieresis
Encoding: 196 196 211
Width: 1024
VWidth: 1048
Flags: HW
LayerCount: 2
Fore
SplineSet
128 896 m 1
 128 128 l 1
 298.666666667 128 469.333333333 128 640 128 c 1
 640 256 l 1
 768 256 l 1
 768 384 l 1
 640 384 l 1
 640 256 l 1
 256 256 l 1
 256 768 l 1
 640 768 l 1
 640 640 l 1
 768 640 l 1
 768 384 l 1
 896 384 l 1
 896 640 l 1
 768 640 l 1
 768 768 l 1
 640 768 l 1
 640 896 l 1
 469.333333333 896 298.666666667 896 128 896 c 1
0 1024 m 1
 1024 1024 l 1
 1024 0 l 1
 0 0 l 1
 0 1024 l 1
EndSplineSet
EndChar

StartChar: Aring
Encoding: 197 197 212
Width: 1024
VWidth: 1048
Flags: HW
LayerCount: 2
Fore
SplineSet
128 896 m 1
 128 128 l 1
 341.333333333 128 554.666666667 128 768 128 c 1
 768 256 l 1
 256 256 l 1
 256 512 l 1
 640 512 l 1
 640 640 l 1
 256 640 l 1
 256 768 l 1
 768 768 l 1
 768 896 l 1
 554.666666667 896 341.333333333 896 128 896 c 1
0 1024 m 1
 1024 1024 l 1
 1024 0 l 1
 0 0 l 1
 0 1024 l 1
EndSplineSet
EndChar

StartChar: AE
Encoding: 198 198 213
Width: 1024
VWidth: 1048
Flags: HW
LayerCount: 2
Fore
SplineSet
128 896 m 1
 128 128 l 1
 256 128 l 1
 256 512 l 1
 768 512 l 1
 768 640 l 1
 256 640 l 1
 256 768 l 1
 896 768 l 1
 896 896 l 1
 640 896 384 896 128 896 c 1
0 1024 m 1
 1024 1024 l 1
 1024 0 l 1
 0 0 l 1
 0 1024 l 1
EndSplineSet
EndChar

StartChar: Ccedilla
Encoding: 199 199 214
Width: 1024
VWidth: 1048
Flags: HW
LayerCount: 2
Fore
SplineSet
0 1024 m 1
 1024 1024 l 1
 1024 0 l 1
 0 0 l 1
 0 1024 l 1
768 256 m 1
 896 256 l 1
 896 512 l 1
 768 512 640 512 512 512 c 1
 512 384 l 1
 768 384 l 1
 768 256 l 1
768 256 m 1
 256 256 l 1
 256 128 l 1
 768 128 l 1
 768 256 l 1
256 256 m 1
 256 768 l 1
 128 768 l 1
 128 256 l 1
 256 256 l 1
768 768 m 1
 768 640 l 1
 896 640 l 1
 896 768 l 1
 768 768 l 1
768 768 m 1
 768 896 l 1
 256 896 l 1
 256 768 l 1
 768 768 l 1
EndSplineSet
EndChar

StartChar: Egrave
Encoding: 200 200 215
Width: 1024
VWidth: 1048
Flags: HW
LayerCount: 2
Fore
SplineSet
128 896 m 1
 128 128 l 1
 256 128 l 1
 256 512 l 1
 768 512 l 1
 768 128 l 1
 896 128 l 1
 896 896 l 1
 768 896 l 1
 768 640 l 1
 256 640 l 1
 256 896 l 1
 128 896 l 1
0 1024 m 1
 1024 1024 l 1
 1024 0 l 1
 0 0 l 1
 0 1024 l 1
EndSplineSet
EndChar

StartChar: Eacute
Encoding: 201 201 216
Width: 1024
VWidth: 1048
Flags: HW
LayerCount: 2
Fore
SplineSet
256 896 m 1
 256 768 l 1
 512 768 l 1
 512 256 l 1
 256 256 l 1
 256 128 l 1
 896 128 l 1
 896 256 l 1
 640 256 l 1
 640 768 l 1
 896 768 l 1
 896 896 l 1
 256 896 l 1
0 1024 m 1
 1024 1024 l 1
 1024 0 l 1
 0 0 l 1
 0 1024 l 1
EndSplineSet
EndChar

StartChar: Ecircumflex
Encoding: 202 202 217
Width: 1024
VWidth: 1048
Flags: HW
LayerCount: 2
Fore
SplineSet
0 1024 m 1
 1024 1024 l 1
 1024 0 l 1
 0 0 l 1
 0 1024 l 1
256 256 m 1
 256 512 l 1
 128 512 l 1
 128 256 l 1
 256 256 l 1
256 256 m 1
 256 128 l 1
 768 128 l 1
 768 256 l 1
 256 256 l 1
768 256 m 1
 896 256 l 1
 896 896 l 1
 768 896 l 1
 768 256 l 1
EndSplineSet
EndChar

StartChar: Edieresis
Encoding: 203 203 218
Width: 1024
VWidth: 1048
Flags: HW
LayerCount: 2
Fore
SplineSet
128 896 m 1
 128 128 l 1
 256 128 l 1
 256 512 l 1
 512 512 l 1
 512 384 l 1
 640 384 l 1
 640 256 l 1
 768 256 l 1
 768 128 l 1
 896 128 l 1
 896 256 l 1
 768 256 l 1
 768 384 l 1
 640 384 l 1
 640 512 l 1
 512 512 l 1
 512 640 l 1
 640 640 l 1
 640 768 l 1
 768 768 l 1
 768 896 l 1
 640 896 l 1
 640 768 l 1
 512 768 l 1
 512 640 l 1
 256 640 l 1
 256 896 l 1
 128 896 l 1
0 1024 m 1
 1024 1024 l 1
 1024 0 l 1
 0 0 l 1
 0 1024 l 1
EndSplineSet
EndChar

StartChar: Igrave
Encoding: 204 204 219
Width: 1024
VWidth: 1048
Flags: HW
LayerCount: 2
Fore
SplineSet
128 896 m 1
 128 128 l 1
 384 128 640 128 896 128 c 1
 896 256 l 1
 256 256 l 1
 256 896 l 1
 128 896 l 1
0 1024 m 1
 1024 1024 l 1
 1024 0 l 1
 0 0 l 1
 0 1024 l 1
EndSplineSet
EndChar

StartChar: Iacute
Encoding: 205 205 220
Width: 1024
VWidth: 1048
Flags: HW
LayerCount: 2
Fore
SplineSet
128 896 m 1
 128 128 l 1
 256 128 l 1
 256 640 l 1
 384 640 l 1
 384 512 l 1
 640 512 l 1
 640 640 l 1
 768 640 l 1
 768 128 l 1
 896 128 l 1
 896 896 l 1
 768 896 l 1
 768 768 l 1
 640 768 l 1
 640 640 l 1
 384 640 l 1
 384 768 l 1
 256 768 l 1
 256 896 l 1
 128 896 l 1
0 1024 m 1
 1024 1024 l 1
 1024 0 l 1
 0 0 l 1
 0 1024 l 1
EndSplineSet
EndChar

StartChar: Icircumflex
Encoding: 206 206 221
Width: 1024
VWidth: 1048
Flags: HW
LayerCount: 2
Fore
SplineSet
128 896 m 1
 128 128 l 1
 256 128 l 1
 256 640 l 1
 384 640 l 1
 384 512 l 1
 512 512 l 1
 512 384 l 1
 640 384 l 1
 640 256 l 1
 768 256 l 1
 768 128 l 1
 896 128 l 1
 896 896 l 1
 768 896 l 1
 768 384 l 1
 640 384 l 1
 640 512 l 1
 512 512 l 1
 512 640 l 1
 384 640 l 1
 384 768 l 1
 256 768 l 1
 256 896 l 1
 128 896 l 1
0 1024 m 1
 1024 1024 l 1
 1024 0 l 1
 0 0 l 1
 0 1024 l 1
EndSplineSet
EndChar

StartChar: Idieresis
Encoding: 207 207 222
Width: 1024
VWidth: 1048
Flags: HW
LayerCount: 2
Fore
SplineSet
0 1024 m 1
 1024 1024 l 1
 1024 0 l 1
 0 0 l 1
 0 1024 l 1
256 256 m 1
 256 768 l 1
 128 768 l 1
 128 256 l 1
 256 256 l 1
256 256 m 1
 256 128 l 1
 768 128 l 1
 768 256 l 1
 256 256 l 1
768 256 m 1
 896 256 l 1
 896 768 l 1
 768 768 l 1
 768 256 l 1
768 768 m 1
 768 896 l 1
 256 896 l 1
 256 768 l 1
 768 768 l 1
EndSplineSet
EndChar

StartChar: Eth
Encoding: 208 208 223
Width: 1024
VWidth: 1048
Flags: HW
LayerCount: 2
Fore
SplineSet
128 896 m 1
 128 128 l 1
 256 128 l 1
 256 384 l 1
 768 384 l 1
 768 512 l 1
 896 512 l 1
 896 768 l 1
 768 768 l 1
 768 512 l 1
 256 512 l 1
 256 768 l 1
 768 768 l 1
 768 896 l 1
 554.666666667 896 341.333333333 896 128 896 c 1
0 1024 m 1
 1024 1024 l 1
 1024 0 l 1
 0 0 l 1
 0 1024 l 1
EndSplineSet
EndChar

StartChar: Ntilde
Encoding: 209 209 224
Width: 1024
VWidth: 1048
Flags: HW
LayerCount: 2
Fore
SplineSet
0 1024 m 1
 1024 1024 l 1
 1024 -12 l 1
 0 -12 l 1
 0 1024 l 1
256 256 m 1
 256 768 l 1
 128 768 l 1
 128 256 l 1
 256 256 l 1
256 256 m 1
 256 128 l 1
 768 128 l 1
 768 256 l 1
 640 256 l 1
 640 384 l 1
 512 384 l 1
 512 512 l 1
 384 512 l 1
 384 384 l 1
 512 384 l 1
 512 256 l 1
 256 256 l 1
768 256 m 1
 896 256 l 1
 896 768 l 1
 768 768 l 1
 768 256 l 1
768 768 m 1
 768 896 l 1
 256 896 l 1
 256 768 l 1
 768 768 l 1
EndSplineSet
EndChar

StartChar: Ograve
Encoding: 210 210 225
Width: 1024
VWidth: 1048
Flags: HW
LayerCount: 2
Fore
SplineSet
128 896 m 1
 128 128 l 1
 256 128 l 1
 256 384 l 1
 640 384 l 1
 640 256 l 1
 768 256 l 1
 768 128 l 1
 896 128 l 1
 896 256 l 1
 768 256 l 1
 768 341.333333333 768 426.666666667 768 512 c 1
 896 512 l 1
 896 768 l 1
 768 768 l 1
 768 512 l 1
 256 512 l 1
 256 768 l 1
 768 768 l 1
 768 896 l 1
 554.666666667 896 341.333333333 896 128 896 c 1
0 1024 m 1
 1024 1024 l 1
 1024 0 l 1
 0 0 l 1
 0 1024 l 1
EndSplineSet
EndChar

StartChar: Oacute
Encoding: 211 211 226
Width: 1024
VWidth: 1048
Flags: HW
LayerCount: 2
Fore
SplineSet
0 1024 m 1
 1024 1024 l 1
 1024 0 l 1
 0 0 l 1
 0 1024 l 1
256 256 m 1
 256 384 l 1
 128 384 l 1
 128 256 l 1
 256 256 l 1
256 256 m 1
 256 128 l 1
 768 128 l 1
 768 256 l 1
 256 256 l 1
768 256 m 1
 896 256 l 1
 896 512 l 1
 768 512 l 1
 768 256 l 1
768 512 m 1
 768 640 l 1
 256 640 l 1
 256 512 l 1
 768 512 l 1
256 640 m 1
 256 768 l 1
 128 768 l 1
 128 640 l 1
 256 640 l 1
256 768 m 1
 768 768 l 1
 768 896 l 1
 256 896 l 1
 256 768 l 1
EndSplineSet
EndChar

StartChar: Ocircumflex
Encoding: 212 212 227
Width: 1024
VWidth: 1048
Flags: HW
LayerCount: 2
Fore
SplineSet
0 1024 m 1
 1024 1024 l 1
 1024 0 l 1
 0 0 l 1
 0 768 l 1
 384 768 l 1
 384 128 l 1
 512 128 l 1
 512 768 l 1
 896 768 l 1
 896 896 l 1
 0 896 l 1
 0 1024 l 1
EndSplineSet
EndChar

StartChar: Otilde
Encoding: 213 213 228
Width: 1024
VWidth: 1048
Flags: HW
LayerCount: 2
Fore
SplineSet
128 896 m 1
 128 256 l 1
 256 256 l 1
 256 128 l 1
 896 128 l 1
 896 384 896 640 896 896 c 1
 768 896 l 1
 768 256 l 1
 256 256 l 1
 256 896 l 1
 128 896 l 1
0 1024 m 1
 1024 1024 l 1
 1024 0 l 1
 0 0 l 1
 0 1024 l 1
EndSplineSet
EndChar

StartChar: Odieresis
Encoding: 214 214 229
Width: 1024
VWidth: 1048
Flags: HW
LayerCount: 2
Fore
SplineSet
128 896 m 1
 128 384 l 1
 256 384 l 1
 256 256 l 1
 384 256 l 1
 384 128 l 1
 640 128 l 1
 640 256 l 1
 768 256 l 1
 768 384 l 1
 896 384 l 1
 896 896 l 1
 768 896 l 1
 768 384 l 1
 640 384 l 1
 640 256 l 1
 384 256 l 1
 384 384 l 1
 256 384 l 1
 256 896 l 1
 128 896 l 1
0 1024 m 1
 1024 1024 l 1
 1024 0 l 1
 0 0 l 1
 0 1024 l 1
EndSplineSet
EndChar

StartChar: multiply
Encoding: 215 215 230
Width: 1024
VWidth: 1048
Flags: HW
LayerCount: 2
Fore
SplineSet
128 896 m 1
 128 256 l 1
 256 256 l 1
 256 128 l 1
 384 128 l 1
 384 256 l 1
 640 256 l 1
 640 128 l 1
 768 128 l 1
 768 256 l 1
 896 256 l 1
 896 896 l 1
 768 896 l 1
 768 256 l 1
 640 256 l 1
 640 384 l 1
 384 384 l 1
 384 256 l 1
 256 256 l 1
 256 896 l 1
 128 896 l 1
0 1024 m 1
 1024 1024 l 1
 1024 0 l 1
 0 0 l 1
 0 1024 l 1
EndSplineSet
EndChar

StartChar: Oslash
Encoding: 216 216 231
Width: 1024
VWidth: 1048
Flags: HW
LayerCount: 2
Fore
SplineSet
128 896 m 1
 128 768 l 1
 256 768 l 1
 256 640 l 1
 384 640 l 1
 384 384 l 1
 256 384 l 1
 256 256 l 1
 128 256 l 1
 128 128 l 1
 256 128 l 1
 256 256 l 1
 384 256 l 1
 384 384 l 1
 640 384 l 1
 640 256 l 1
 768 256 l 1
 768 128 l 1
 896 128 l 1
 896 256 l 1
 768 256 l 1
 768 384 l 1
 640 384 l 1
 640 640 l 1
 768 640 l 1
 768 768 l 1
 896 768 l 1
 896 896 l 1
 768 896 l 1
 768 768 l 1
 640 768 l 1
 640 640 l 1
 384 640 l 1
 384 768 l 1
 256 768 l 1
 256 896 l 1
 128 896 l 1
0 1024 m 1
 1024 1024 l 1
 1024 0 l 1
 0 0 l 1
 0 1024 l 1
EndSplineSet
EndChar

StartChar: Ugrave
Encoding: 217 217 232
Width: 1024
VWidth: 1048
Flags: HW
LayerCount: 2
Fore
SplineSet
0 1024 m 1
 1024 1024 l 1
 1024 0 l 1
 0 0 l 1
 0 768 l 1
 128 768 l 1
 128 640 l 1
 256 640 l 1
 256 512 l 1
 384 512 l 1
 384 128 l 1
 512 128 l 1
 512 512 l 1
 640 512 l 1
 640 640 l 1
 768 640 l 1
 768 768 l 1
 896 768 l 1
 896 896 l 1
 768 896 l 1
 768 768 l 1
 640 768 l 1
 640 640 l 1
 512 640 l 1
 512 512 l 1
 384 512 l 1
 384 640 l 1
 256 640 l 1
 256 768 l 1
 128 768 l 1
 128 896 l 1
 0 896 l 1
 0 1024 l 1
EndSplineSet
EndChar

StartChar: Uacute
Encoding: 218 218 233
Width: 1024
VWidth: 1048
Flags: HW
LayerCount: 2
Fore
SplineSet
128 896 m 1
 128 768 l 1
 640 768 l 1
 640 640 l 1
 512 640 l 1
 512 512 l 1
 384 512 l 1
 384 384 l 1
 256 384 l 1
 256 256 l 1
 128 256 l 1
 128 128 l 1
 896 128 l 1
 896 256 l 1
 384 256 l 1
 384 384 l 1
 512 384 l 1
 512 512 l 1
 640 512 l 1
 640 640 l 1
 768 640 l 1
 768 768 l 1
 896 768 l 1
 896 896 l 1
 128 896 l 1
0 1024 m 1
 1024 1024 l 1
 1024 0 l 1
 0 0 l 1
 0 1024 l 1
EndSplineSet
EndChar

StartChar: Ucircumflex
Encoding: 219 219 234
Width: 1024
VWidth: 1048
Flags: HW
LayerCount: 2
Fore
SplineSet
512 896 m 1
 512 128 l 1
 768 128 l 1
 768 256 l 1
 640 256 l 1
 640 768 l 1
 768 768 l 1
 768 896 l 1
 512 896 l 1
0 1024 m 1
 1024 1024 l 1
 1024 0 l 1
 0 0 l 1
 0 1024 l 1
EndSplineSet
EndChar

StartChar: Udieresis
Encoding: 220 220 235
Width: 1024
VWidth: 1048
Flags: HW
LayerCount: 2
Fore
SplineSet
128 768 m 1
 128 640 l 1
 256 640 l 1
 256 512 l 1
 384 512 l 1
 384 384 l 1
 512 384 l 1
 512 256 l 1
 640 256 l 1
 640 128 l 1
 768 128 l 1
 768 256 l 1
 640 256 l 1
 640 384 l 1
 512 384 l 1
 512 512 l 1
 384 512 l 1
 384 640 l 1
 256 640 l 1
 256 768 l 1
 128 768 l 1
0 1024 m 1
 1024 1024 l 1
 1024 0 l 1
 0 0 l 1
 0 1024 l 1
EndSplineSet
EndChar

StartChar: Yacute
Encoding: 221 221 236
Width: 1024
VWidth: 1048
Flags: HW
LayerCount: 2
Fore
SplineSet
256 896 m 1
 256 768 l 1
 384 768 l 1
 384 256 l 1
 256 256 l 1
 256 128 l 1
 512 128 l 1
 512 896 l 1
 256 896 l 1
0 1024 m 1
 1024 1024 l 1
 1024 0 l 1
 0 0 l 1
 0 1024 l 1
EndSplineSet
EndChar

StartChar: Thorn
Encoding: 222 222 237
Width: 1024
VWidth: 1048
Flags: HW
LayerCount: 2
Fore
SplineSet
384 896 m 1
 384 768 l 1
 256 768 l 1
 256 640 l 1
 128 640 l 1
 128 512 l 1
 256 512 l 1
 256 640 l 1
 384 640 l 1
 384 128 l 1
 512 128 l 1
 512 640 l 1
 640 640 l 1
 640 512 l 1
 768 512 l 1
 768 640 l 1
 640 640 l 1
 640 768 l 1
 512 768 l 1
 512 896 l 1
 384 896 l 1
0 1024 m 1
 1024 1024 l 1
 1024 0 l 1
 0 0 l 1
 0 1024 l 1
EndSplineSet
EndChar

StartChar: germandbls
Encoding: 223 223 238
Width: 1024
VWidth: 1048
Flags: HW
LayerCount: 2
Fore
SplineSet
0 1024 m 1
 1024 1024 l 1
 1024 128 l 1
 0 128 l 1
 0 1024 l 1
EndSplineSet
EndChar

StartChar: agrave
Encoding: 224 224 239
Width: 1024
VWidth: 1048
Flags: HW
LayerCount: 2
Fore
SplineSet
0 1024 m 1
 1024 1024 l 1
 1024 0 l 1
 0 0 l 1
 0 1024 l 1
768 768 m 1
 768 640 l 1
 896 640 l 1
 896 768 l 1
 768 768 l 1
768 768 m 1
 768 896 l 1
 384 896 l 1
 384 768 l 1
 256 768 l 1
 256 640 l 1
 128 640 l 1
 128 512 l 1
 256 512 l 1
 256 256 l 1
 128 256 l 1
 128 128 l 1
 896 128 l 1
 896 256 l 1
 384 256 l 1
 384 512 l 1
 640 512 l 1
 640 640 l 1
 384 640 l 1
 384 768 l 1
 768 768 l 1
EndSplineSet
EndChar

StartChar: aacute
Encoding: 225 225 240
Width: 1024
VWidth: 1048
Flags: HW
LayerCount: 2
Fore
SplineSet
256 768 m 1
 256 640 l 1
 640 640 l 1
 640 512 l 1
 256 512 l 1
 256 384 l 1
 128 384 l 1
 128 256 l 1
 256 256 l 1
 256 384 l 1
 640 384 l 1
 640 256 l 1
 256 256 l 1
 256 128 l 1
 896 128 l 1
 896 256 l 1
 768 256 l 1
 768 640 l 1
 640 640 l 1
 640 768 l 1
 256 768 l 1
0 1024 m 1
 1024 1024 l 1
 1024 0 l 1
 0 0 l 1
 0 1024 l 1
EndSplineSet
EndChar

StartChar: acircumflex
Encoding: 226 226 241
Width: 1024
VWidth: 1048
Flags: HW
LayerCount: 2
Fore
SplineSet
256 896 m 1
 256 128 l 1
 426.666666667 128 597.333333333 128 768 128 c 1
 768 256 l 1
 896 256 l 1
 896 512 l 1
 768 512 l 1
 768 256 l 1
 384 256 l 1
 384 512 l 1
 768 512 l 1
 768 640 l 1
 384 640 l 1
 384 896 l 1
 256 896 l 1
0 1024 m 1
 1024 1024 l 1
 1024 0 l 1
 0 0 l 1
 0 1024 l 1
EndSplineSet
EndChar

StartChar: atilde
Encoding: 227 227 242
Width: 1024
VWidth: 1048
Flags: HW
LayerCount: 2
Fore
SplineSet
0 1024 m 1
 1024 1024 l 1
 1024 0 l 1
 0 0 l 1
 0 1024 l 1
384 256 m 1
 384 128 l 1
 768 128 l 1
 768 256 l 1
 384 256 l 1
384 256 m 1
 384 640 l 1
 256 640 l 1
 256 256 l 1
 384 256 l 1
384 640 m 1
 768 640 l 1
 768 768 l 1
 384 768 l 1
 384 640 l 1
EndSplineSet
EndChar

StartChar: adieresis
Encoding: 228 228 243
Width: 1024
VWidth: 1048
Flags: HW
LayerCount: 2
Fore
SplineSet
640 896 m 1
 640 640 l 1
 256 640 l 1
 256 512 l 1
 128 512 l 1
 128 256 l 1
 256 256 l 1
 256 512 l 1
 640 512 l 1
 640 256 l 1
 256 256 l 1
 256 128 l 1
 896 128 l 1
 896 256 l 1
 768 256 l 1
 768 896 l 1
 640 896 l 1
0 1024 m 1
 1024 1024 l 1
 1024 0 l 1
 0 0 l 1
 0 1024 l 1
EndSplineSet
EndChar

StartChar: aring
Encoding: 229 229 244
Width: 1024
VWidth: 1048
Flags: HW
LayerCount: 2
Fore
SplineSet
0 1024 m 1
 1024 1024 l 1
 1024 0 l 1
 0 0 l 1
 0 1024 l 1
256 256 m 1
 256 128 l 1
 768 128 l 1
 768 256 l 1
 256 256 l 1
256 256 m 1
 256 384 l 1
 640 384 l 1
 640 512 l 1
 256 512 l 1
 256 640 l 1
 128 640 l 1
 128 256 l 1
 256 256 l 1
640 512 m 1
 768 512 l 1
 768 640 l 1
 640 640 l 1
 640 512 l 1
640 640 m 1
 640 768 l 1
 256 768 l 1
 256 640 l 1
 640 640 l 1
EndSplineSet
EndChar

StartChar: ae
Encoding: 230 230 245
Width: 1024
VWidth: 1048
Flags: HW
LayerCount: 2
Fore
SplineSet
0 1024 m 1
 1024 1024 l 1
 1024 0 l 1
 0 0 l 1
 0 1024 l 1
512 768 m 1
 384 768 l 1
 384 128 l 1
 512 128 l 1
 512 512 l 1
 640 512 l 1
 640 640 l 1
 512 640 l 1
 512 768 l 1
512 768 m 1
 768 768 l 1
 768 896 l 1
 512 896 l 1
 512 768 l 1
EndSplineSet
EndChar

StartChar: ccedilla
Encoding: 231 231 246
Width: 1024
VWidth: 1048
Flags: HW
LayerCount: 2
Fore
SplineSet
0 1024 m 1
 1024 1024 l 1
 1024 0 l 1
 640 0 l 1
 640 128 l 1
 256 128 l 1
 256 0 l 1
 0 0 l 1
 0 1024 l 1
640 128 m 1
 768 128 l 1
 768 768 l 1
 597.333333333 768 426.666666667 768 256 768 c 1
 256 640 l 1
 128 640 l 1
 128 384 l 1
 256 384 l 1
 256 640 l 1
 640 640 l 1
 640 384 l 1
 256 384 l 1
 256 256 l 1
 640 256 l 1
 640 128 l 1
EndSplineSet
EndChar

StartChar: egrave
Encoding: 232 232 247
Width: 1024
VWidth: 1048
Flags: HW
LayerCount: 2
Fore
SplineSet
128 896 m 1
 128 128 l 1
 256 128 l 1
 256 512 l 1
 640 512 l 1
 640 128 l 1
 768 128 l 1
 768 512 l 1
 640 512 l 1
 640 640 l 1
 256 640 l 1
 256 896 l 1
 128 896 l 1
0 1024 m 1
 1024 1024 l 1
 1024 0 l 1
 0 0 l 1
 0 1024 l 1
EndSplineSet
EndChar

StartChar: eacute
Encoding: 233 233 248
Width: 1024
VWidth: 1048
Flags: HW
LayerCount: 2
Fore
SplineSet
256 640 m 1
 256 512 l 1
 384 512 l 1
 384 256 l 1
 256 256 l 1
 256 128 l 1
 640 128 l 1
 640 256 l 1
 512 256 l 1
 512 640 l 1
 426.666666667 640 341.333333333 640 256 640 c 1
384 896 m 1
 384 768 l 1
 512 768 l 1
 512 896 l 1
 384 896 l 1
0 1024 m 1
 1024 1024 l 1
 1024 0 l 1
 0 0 l 1
 0 1024 l 1
EndSplineSet
EndChar

StartChar: ecircumflex
Encoding: 234 234 249
Width: 1024
VWidth: 1048
Flags: HW
LayerCount: 2
Fore
SplineSet
640 896 m 1
 640 768 l 1
 768 768 l 1
 768 896 l 1
 640 896 l 1
0 1024 m 1
 1024 1024 l 1
 1024 0 l 1
 640 0 l 1
 640 128 l 1
 384 128 l 1
 384 256 l 1
 256 256 l 1
 256 128 l 1
 384 128 l 1
 384 0 l 1
 0 0 l 1
 0 1024 l 1
640 128 m 1
 768 128 l 1
 768 640 l 1
 640 640 l 1
 640 128 l 1
EndSplineSet
EndChar

StartChar: edieresis
Encoding: 235 235 250
Width: 1024
VWidth: 1048
Flags: HW
LayerCount: 2
Fore
SplineSet
256 896 m 1
 256 128 l 1
 384 128 l 1
 384 384 l 1
 512 384 l 1
 512 256 l 1
 640 256 l 1
 640 128 l 1
 768 128 l 1
 768 256 l 1
 640 256 l 1
 640 384 l 1
 512 384 l 1
 512 640 l 1
 640 640 l 1
 640 768 l 1
 512 768 l 1
 512 640 l 1
 384 640 l 1
 384 896 l 1
 256 896 l 1
0 1024 m 1
 1024 1024 l 1
 1024 0 l 1
 0 0 l 1
 0 1024 l 1
EndSplineSet
EndChar

StartChar: igrave
Encoding: 236 236 251
Width: 1024
VWidth: 1048
Flags: HW
LayerCount: 2
Fore
SplineSet
384 896 m 1
 384 256 l 1
 512 256 l 1
 512 128 l 1
 768 128 l 1
 768 256 l 1
 512 256 l 1
 512 896 l 1
 384 896 l 1
0 1024 m 1
 1024 1024 l 1
 1024 0 l 1
 0 0 l 1
 0 1024 l 1
EndSplineSet
EndChar

StartChar: iacute
Encoding: 237 237 252
Width: 1024
VWidth: 1048
Flags: HW
LayerCount: 2
Fore
SplineSet
128 768 m 1
 128 128 l 1
 256 128 l 1
 256 640 l 1
 384 640 l 1
 384 128 l 1
 512 128 l 1
 512 640 l 1
 640 640 l 1
 640 128 l 1
 768 128 l 1
 768 640 l 1
 640 640 l 1
 640 768 l 1
 512 768 l 1
 512 640 l 1
 384 640 l 1
 384 768 l 1
 298.666666667 768 213.333333333 768 128 768 c 1
0 1024 m 1
 1024 1024 l 1
 1024 0 l 1
 0 0 l 1
 0 1024 l 1
EndSplineSet
EndChar

StartChar: icircumflex
Encoding: 238 238 253
Width: 1024
VWidth: 1048
Flags: HW
LayerCount: 2
Fore
SplineSet
128 768 m 1
 128 128 l 1
 256 128 l 1
 256 640 l 1
 640 640 l 1
 640 128 l 1
 768 128 l 1
 768 640 l 1
 640 640 l 1
 640 768 l 1
 469.333333333 768 298.666666667 768 128 768 c 1
0 1024 m 1
 1024 1024 l 1
 1024 0 l 1
 0 0 l 1
 0 1024 l 1
EndSplineSet
EndChar

StartChar: idieresis
Encoding: 239 239 254
Width: 1024
VWidth: 1048
Flags: HW
LayerCount: 2
Fore
SplineSet
0 1024 m 1
 1024 1024 l 1
 1024 0 l 1
 0 0 l 1
 0 1024 l 1
256 256 m 1
 256 640 l 1
 128 640 l 1
 128 256 l 1
 256 256 l 1
256 256 m 1
 256 128 l 1
 640 128 l 1
 640 256 l 1
 256 256 l 1
640 256 m 1
 768 256 l 1
 768 640 l 1
 640 640 l 1
 640 256 l 1
640 640 m 1
 640 768 l 1
 256 768 l 1
 256 640 l 1
 640 640 l 1
EndSplineSet
EndChar

StartChar: eth
Encoding: 240 240 255
Width: 1024
VWidth: 1048
Flags: HW
LayerCount: 2
Fore
SplineSet
0 1024 m 1
 1024 1024 l 1
 1024 0 l 1
 256 0 l 1
 256 256 l 1
 640 256 l 1
 640 384 l 1
 768 384 l 1
 768 640 l 1
 640 640 l 1
 640 384 l 1
 256 384 l 1
 256 640 l 1
 640 640 l 1
 640 768 l 1
 469.333333333 768 298.666666667 768 128 768 c 1
 128 0 l 1
 0 0 l 1
 0 1024 l 1
EndSplineSet
EndChar

StartChar: ntilde
Encoding: 241 241 256
Width: 1024
VWidth: 1048
Flags: HW
LayerCount: 2
Fore
SplineSet
0 1024 m 1
 1024 1024 l 1
 1024 0 l 1
 896 0 l 1
 896 128 l 1
 768 128 l 1
 768 768 l 1
 597.333333333 768 426.666666667 768 256 768 c 1
 256 640 l 1
 128 640 l 1
 128 384 l 1
 256 384 l 1
 256 640 l 1
 640 640 l 1
 640 384 l 1
 256 384 l 1
 256 256 l 1
 640 256 l 1
 640 0 l 1
 0 0 l 1
 0 1024 l 1
EndSplineSet
EndChar

StartChar: ograve
Encoding: 242 242 257
Width: 1024
VWidth: 1048
Flags: HW
LayerCount: 2
Fore
SplineSet
0 1024 m 1
 1024 1024 l 1
 1024 0 l 1
 0 0 l 1
 0 1024 l 1
384 640 m 1
 256 640 l 1
 256 128 l 1
 384 128 l 1
 384 640 l 1
384 640 m 1
 768 640 l 1
 768 768 l 1
 384 768 l 1
 384 640 l 1
EndSplineSet
EndChar

StartChar: oacute
Encoding: 243 243 258
Width: 1024
VWidth: 1048
Flags: HW
LayerCount: 2
Fore
SplineSet
0 1024 m 1
 1024 1024 l 1
 1024 0 l 1
 0 0 l 1
 0 1024 l 1
640 256 m 1
 128 256 l 1
 128 128 l 1
 640 128 l 1
 640 256 l 1
640 256 m 1
 768 256 l 1
 768 384 l 1
 640 384 l 1
 640 256 l 1
640 384 m 1
 640 512 l 1
 256 512 l 1
 256 384 l 1
 640 384 l 1
256 512 m 1
 256 640 l 1
 128 640 l 1
 128 512 l 1
 256 512 l 1
256 640 m 1
 640 640 l 1
 640 768 l 1
 256 768 l 1
 256 640 l 1
EndSplineSet
EndChar

StartChar: ocircumflex
Encoding: 244 244 259
Width: 1024
VWidth: 1048
Flags: HW
LayerCount: 2
Fore
SplineSet
384 896 m 1
 384 768 l 1
 256 768 l 1
 256 640 l 1
 384 640 l 1
 384 256 l 1
 512 256 l 1
 512 128 l 1
 768 128 l 1
 768 256 l 1
 512 256 l 1
 512 640 l 1
 640 640 l 1
 640 768 l 1
 512 768 l 1
 512 896 l 1
 384 896 l 1
0 1024 m 1
 1024 1024 l 1
 1024 0 l 1
 0 0 l 1
 0 1024 l 1
EndSplineSet
EndChar

StartChar: otilde
Encoding: 245 245 260
Width: 1024
VWidth: 1048
Flags: HW
LayerCount: 2
Fore
SplineSet
128 768 m 1
 128 256 l 1
 256 256 l 1
 256 128 l 1
 426.666666667 128 597.333333333 128 768 128 c 1
 768 768 l 1
 640 768 l 1
 640 256 l 1
 256 256 l 1
 256 768 l 1
 128 768 l 1
0 1024 m 1
 1024 1024 l 1
 1024 0 l 1
 0 0 l 1
 0 1024 l 1
EndSplineSet
EndChar

StartChar: odieresis
Encoding: 246 246 261
Width: 1024
VWidth: 1048
Flags: HW
LayerCount: 2
Fore
SplineSet
128 768 m 1
 128 512 l 1
 256 512 l 1
 256 256 l 1
 384 256 l 1
 384 128 l 1
 512 128 l 1
 512 256 l 1
 640 256 l 1
 640 512 l 1
 768 512 l 1
 768 768 l 1
 640 768 l 1
 640 512 l 1
 512 512 l 1
 512 256 l 1
 384 256 l 1
 384 512 l 1
 256 512 l 1
 256 768 l 1
 128 768 l 1
0 1024 m 1
 1024 1024 l 1
 1024 0 l 1
 0 0 l 1
 0 1024 l 1
EndSplineSet
EndChar

StartChar: divide
Encoding: 247 247 262
Width: 1024
VWidth: 1048
Flags: HW
LayerCount: 2
Fore
SplineSet
128 768 m 1
 128 256 l 1
 256 256 l 1
 256 128 l 1
 384 128 l 1
 384 256 l 1
 512 256 l 1
 512 128 l 1
 640 128 l 1
 640 256 l 1
 768 256 l 1
 768 768 l 1
 640 768 l 1
 640 256 l 1
 512 256 l 1
 512 640 l 1
 384 640 l 1
 384 256 l 1
 256 256 l 1
 256 768 l 1
 128 768 l 1
0 1024 m 1
 1024 1024 l 1
 1024 0 l 1
 0 0 l 1
 0 1024 l 1
EndSplineSet
EndChar

StartChar: oslash
Encoding: 248 248 263
Width: 1024
VWidth: 1048
Flags: HW
LayerCount: 2
Fore
SplineSet
128 768 m 1
 128 640 l 1
 256 640 l 1
 256 512 l 1
 384 512 l 1
 384 384 l 1
 256 384 l 1
 256 256 l 1
 128 256 l 1
 128 128 l 1
 256 128 l 1
 256 256 l 1
 384 256 l 1
 384 384 l 1
 512 384 l 1
 512 256 l 1
 640 256 l 1
 640 128 l 1
 768 128 l 1
 768 256 l 1
 640 256 l 1
 640 384 l 1
 512 384 l 1
 512 512 l 1
 640 512 l 1
 640 640 l 1
 768 640 l 1
 768 768 l 1
 640 768 l 1
 640 640 l 1
 512 640 l 1
 512 512 l 1
 384 512 l 1
 384 640 l 1
 256 640 l 1
 256 768 l 1
 128 768 l 1
0 1024 m 1
 1024 1024 l 1
 1024 0 l 1
 0 0 l 1
 0 1024 l 1
EndSplineSet
EndChar

StartChar: ugrave
Encoding: 249 249 264
Width: 1024
VWidth: 1048
Flags: HW
LayerCount: 2
Fore
SplineSet
128 768 m 1
 128 384 l 1
 256 384 l 1
 256 256 l 1
 640 256 l 1
 640 128 l 1
 256 128 l 1
 256 0 l 1
 0 0 l 1
 0 1024 l 1
 1024 1024 l 1
 1024 0 l 1
 640 0 l 1
 640 128 l 1
 768 128 l 1
 768 768 l 1
 640 768 l 1
 640 384 l 1
 256 384 l 1
 256 768 l 1
 128 768 l 1
EndSplineSet
EndChar

StartChar: uacute
Encoding: 250 250 265
Width: 1024
VWidth: 1048
Flags: HW
LayerCount: 2
Fore
SplineSet
128 768 m 1
 128 640 l 1
 512 640 l 1
 512 512 l 1
 384 512 l 1
 384 384 l 1
 256 384 l 1
 256 256 l 1
 128 256 l 1
 128 128 l 1
 768 128 l 1
 768 256 l 1
 384 256 l 1
 384 384 l 1
 512 384 l 1
 512 512 l 1
 640 512 l 1
 640 640 l 1
 768 640 l 1
 768 768 l 1
 128 768 l 1
0 1024 m 1
 1024 1024 l 1
 1024 0 l 1
 0 0 l 1
 0 1024 l 1
EndSplineSet
EndChar

StartChar: ucircumflex
Encoding: 251 251 266
Width: 1024
VWidth: 1048
Flags: HW
LayerCount: 2
Fore
SplineSet
512 896 m 1
 512 810.666666667 512 725.333333333 512 640 c 1
 256 640 l 1
 256 384 l 1
 512 384 l 1
 512 298.666666667 512 213.333333333 512 128 c 1
 896 128 l 1
 896 256 l 1
 640 256 l 1
 640 384 l 1
 512 384 l 1
 512 640 l 1
 640 640 l 1
 640 768 l 1
 896 768 l 1
 896 896 l 1
 512 896 l 1
0 1024 m 1
 1024 1024 l 1
 1024 0 l 1
 0 0 l 1
 0 1024 l 1
EndSplineSet
EndChar

StartChar: udieresis
Encoding: 252 252 267
Width: 1024
VWidth: 1048
Flags: HW
LayerCount: 2
Fore
SplineSet
512 896 m 1
 512 128 l 1
 640 128 l 1
 640 896 l 1
 512 896 l 1
0 1024 m 1
 1024 1024 l 1
 1024 0 l 1
 0 0 l 1
 0 1024 l 1
EndSplineSet
EndChar

StartChar: yacute
Encoding: 253 253 268
Width: 1024
VWidth: 1048
Flags: HW
LayerCount: 2
Fore
SplineSet
128 896 m 1
 128 768 l 1
 384 768 l 1
 384 640 l 1
 512 640 l 1
 512 384 l 1
 384 384 l 1
 384 256 l 1
 128 256 l 1
 128 128 l 1
 512 128 l 1
 512 213.333333333 512 298.666666667 512 384 c 1
 768 384 l 1
 768 640 l 1
 512 640 l 1
 512 725.333333333 512 810.666666667 512 896 c 1
 128 896 l 1
0 1024 m 1
 1024 1024 l 1
 1024 0 l 1
 0 0 l 1
 0 1024 l 1
EndSplineSet
EndChar

StartChar: thorn
Encoding: 254 254 269
Width: 1024
VWidth: 1048
Flags: HW
LayerCount: 2
Fore
SplineSet
0 1024 m 1
 1024 1024 l 1
 1024 0 l 1
 0 0 l 1
 0 1024 l 1
768 768 m 1
 896 768 l 1
 896 896 l 1
 768 896 l 1
 768 768 l 1
768 768 m 1
 512 768 l 1
 512 640 l 1
 768 640 l 1
 768 768 l 1
512 768 m 1
 512 896 l 1
 256 896 l 1
 256 768 l 1
 128 768 l 1
 128 640 l 1
 256 640 l 1
 256 768 l 1
 512 768 l 1
EndSplineSet
EndChar

StartChar: ydieresis
Encoding: 255 255 270
Width: 1024
VWidth: 1048
Flags: HW
LayerCount: 2
Fore
SplineSet
128 256 m 1
 128 128 l 1
 256 128 l 1
 256 0 l 1
 0 0 l 1
 0 256 l 1
 128 256 l 1
128 256 m 1
 128 768 l 1
 0 768 l 1
 0 1024 l 1
 256 1024 l 1
 256 896 l 1
 768 896 l 1
 768 1024 l 1
 1024 1024 l 1
 1024 768 l 1
 896 768 l 1
 896 896 l 1
 768 896 l 1
 768 768 l 1
 896 768 l 1
 896 256 l 1
 1024 256 l 1
 1024 0 l 1
 768 0 l 1
 768 128 l 1
 896 128 l 1
 896 256 l 1
 768 256 l 1
 768 128 l 1
 256 128 l 1
 256 256 l 1
 128 256 l 1
256 896 m 1
 128 896 l 1
 128 768 l 1
 256 768 l 1
 256 896 l 1
384 640 m 1
 640 640 l 1
 640 768 l 1
 384 768 l 1
 384 640 l 1
384 640 m 1
 256 640 l 1
 256 384 l 1
 384 384 l 1
 384 640 l 1
384 384 m 1
 384 256 l 1
 640 256 l 1
 640 384 l 1
 384 384 l 1
EndSplineSet
EndChar

